<?xml version="1.0" standalone="no"?>
<!DOCTYPE svg PUBLIC "-//W3C//DTD SVG 20010904//EN"
 "http://www.w3.org/TR/2001/REC-SVG-20010904/DTD/svg10.dtd">
<svg version="1.0" xmlns="http://www.w3.org/2000/svg"
 width="1283.000000pt" height="910.000000pt" viewBox="0 0 1283.000000 910.000000"
 preserveAspectRatio="xMidYMid meet">

<g transform="translate(0.000000,910.000000) scale(0.100000,-0.100000)"
fill="#000000" stroke="none">
<path d="M0 4555 l0 -4545 3205 0 3205 0 0 4545 0 4545 -3205 0 -3205 0 0
-4545z m2017 3491 c26 -31 347 -375 490 -525 l63 -66 -3 -115 -2 -115 -564 -3
-565 -2 -130 82 c-72 46 -166 105 -208 133 -42 27 -131 85 -197 128 l-121 77
0 214 c0 117 3 216 7 219 3 4 275 7 604 7 l598 0 28 -34z m1423 -1541 c0 -22
5 -25 33 -25 47 0 130 -43 157 -81 32 -44 39 -132 15 -183 -28 -58 -76 -88
-177 -110 -19 -4 -28 -13 -28 -26 0 -18 -7 -20 -60 -20 -53 0 -60 2 -60 20 0
14 -10 22 -42 30 -138 33 -205 132 -169 243 22 66 112 127 189 127 15 0 22 6
22 18 0 28 9 32 67 32 50 0 53 -1 53 -25z m-2299 0 c24 -8 58 -26 74 -39 l30
-24 -34 -36 c-41 -42 -44 -43 -78 -16 -29 23 -88 26 -128 8 -69 -31 -75 -161
-10 -204 38 -25 109 -23 145 5 l30 21 37 -34 c37 -33 37 -35 20 -54 -10 -11
-42 -30 -70 -42 -41 -18 -64 -21 -117 -18 -124 9 -203 81 -217 196 -20 170
148 295 318 237z m509 -45 l0 -50 -105 0 -105 0 0 -35 0 -35 95 0 95 0 0 -45
0 -45 -95 0 -95 0 0 -35 0 -35 110 0 110 0 0 -50 0 -50 -175 0 -175 0 0 215 0
215 170 0 170 0 0 -50z m400 24 c58 -34 82 -79 78 -144 -2 -35 -11 -66 -23
-82 -29 -40 -102 -68 -174 -68 l-61 0 0 -55 0 -55 -65 0 -65 0 0 216 0 216
138 -4 c116 -2 142 -6 172 -24z m490 -24 l0 -50 -65 0 -65 0 0 -165 0 -165
-60 0 -60 0 0 165 0 165 -65 0 -65 0 -1 30 c-1 17 -2 36 -3 43 -1 6 -1 15 1
20 2 4 89 7 194 7 l189 0 0 -50z m190 38 c1 -7 2 -57 3 -111 1 -53 5 -98 9
-100 4 -1 42 48 85 108 l78 110 54 3 c36 2 57 -1 63 -10 5 -7 8 -104 6 -215
l-3 -203 -62 0 -63 0 0 116 c0 63 -4 113 -8 110 -5 -3 -30 -36 -55 -73 -111
-162 -96 -148 -165 -151 l-62 -3 0 216 0 215 60 0 c41 0 60 -4 60 -12z m1130
-114 l0 -127 38 55 c20 30 60 86 87 126 l50 72 58 0 57 0 0 -215 0 -215 -60 0
-60 0 0 122 0 122 -86 -122 -86 -122 -59 0 -59 0 0 215 0 215 60 0 60 0 0
-126z m520 40 l0 -85 27 3 c22 2 37 19 78 85 l50 82 68 1 67 0 -23 -37 c-13
-21 -43 -67 -66 -103 -23 -35 -39 -71 -36 -79 11 -28 117 -201 123 -201 4 0
36 66 71 148 35 81 77 175 93 210 l28 63 62 -3 62 -3 93 -209 c51 -115 93
-211 93 -213 0 -2 -30 -3 -67 -1 -66 3 -66 3 -78 38 l-12 35 -91 3 -92 3 -16
-41 -16 -41 -136 3 -135 3 -47 75 c-37 59 -53 76 -73 78 l-27 3 0 -80 0 -81
-65 0 -65 0 0 215 0 215 65 0 65 0 0 -86z m1180 36 l0 -50 -65 0 -65 0 0 -165
0 -165 -60 0 -60 0 0 165 0 165 -65 0 -65 0 0 50 0 50 190 0 190 0 0 -50z
m-4328 -597 c23 -20 24 -85 2 -107 -20 -21 -68 -20 -85 0 -21 25 -17 93 6 110
25 19 54 18 77 -3z m133 -3 c22 -24 25 -81 6 -104 -17 -20 -65 -21 -85 0 -21
20 -20 83 1 106 21 24 55 23 78 -2z m119 4 c23 -22 20 -34 -16 -71 l-32 -33
32 0 c18 0 32 -4 32 -10 0 -5 -22 -10 -50 -10 -27 0 -50 3 -50 7 0 4 16 24 36
44 44 45 42 74 -6 64 -18 -4 -30 -2 -30 3 0 24 62 29 84 6z m147 9 c1 -5 3
-36 4 -70 1 -47 -1 -63 -11 -63 -11 0 -14 18 -14 70 0 40 4 70 10 70 6 0 11
-3 11 -7z m209 -13 c41 -41 14 -120 -40 -120 -33 0 -60 31 -60 70 0 61 59 91
100 50z m130 8 c0 -6 -7 -20 -17 -30 -9 -10 -11 -18 -5 -18 20 0 34 -38 22
-61 -9 -16 -19 -19 -52 -17 -53 4 -63 26 -12 24 41 -1 60 22 25 31 -22 6 -28
27 -11 38 20 12 9 25 -20 25 -16 0 -30 5 -30 10 0 6 23 10 50 10 32 0 50 -4
50 -12z m100 -18 c-11 -16 -25 -32 -30 -35 -17 -10 -11 -25 10 -25 11 0 20 7
20 15 0 8 5 15 10 15 6 0 10 -7 10 -15 0 -8 7 -15 15 -15 8 0 15 -4 15 -10 0
-5 -7 -10 -15 -10 -8 0 -15 -7 -15 -15 0 -8 -4 -15 -10 -15 -5 0 -10 7 -10 15
0 11 -11 15 -40 15 -22 0 -40 4 -40 8 0 17 73 102 87 102 11 0 9 -7 -7 -30z
m154 11 c21 -23 24 -85 6 -106 -7 -8 -27 -15 -46 -15 -38 0 -54 21 -54 71 0
61 57 91 94 50z m134 7 c5 -7 9 -38 8 -68 l-1 -55 -44 0 c-52 0 -74 22 -54 55
8 12 9 21 3 25 -14 9 -12 21 6 39 19 19 67 21 82 4z m-1484 -40 l36 -42 0 42
c0 28 4 42 13 42 15 0 22 -78 11 -114 -6 -18 -11 -15 -50 29 l-44 50 0 -47 c0
-27 -4 -48 -10 -48 -6 0 -10 28 -10 65 0 36 4 65 9 65 5 0 26 -19 45 -42z
m140 26 c8 -21 -11 -44 -36 -44 -21 0 -33 22 -24 45 7 20 52 19 60 -1z m-9
-64 c-3 -5 -15 -10 -25 -10 -10 0 -22 5 -25 10 -4 6 7 10 25 10 18 0 29 -4 25
-10z m575 0 c0 -5 -13 -10 -30 -10 -16 0 -30 5 -30 10 0 6 14 10 30 10 17 0
30 -4 30 -10z m145 0 c-3 -5 -17 -10 -30 -10 -13 0 -27 5 -30 10 -4 6 8 10 30
10 22 0 34 -4 30 -10z m-891 -523 l13 -32 17 33 c23 44 39 40 19 -5 -30 -73
-43 -93 -63 -93 -11 0 -20 5 -20 10 0 6 7 10 15 10 8 0 15 7 15 15 0 9 -7 32
-15 52 -8 19 -15 40 -15 45 0 18 21 -4 34 -35z m294 20 c20 -16 14 -55 -13
-73 -29 -19 -63 -11 -74 19 -22 58 36 94 87 54z m108 7 c18 -15 18 -15 -4 -10
-34 7 -52 -3 -52 -29 0 -26 18 -36 52 -29 22 5 22 5 4 -10 -21 -17 -55 -13
-68 8 -15 22 -8 55 14 70 28 20 30 20 54 0z m102 -2 c-12 -2 -18 -15 -20 -45
-4 -55 -22 -54 -26 1 -2 31 -8 42 -20 43 -9 1 -1 5 18 8 19 4 42 5 50 2 12 -5
12 -6 -2 -9z m100 2 c22 -15 29 -49 14 -70 -25 -36 -92 -14 -92 31 0 20 31 55
50 55 3 0 16 -7 28 -16z m240 0 c36 -25 28 -44 -19 -44 -36 0 -40 -2 -28 -16
8 -10 21 -13 36 -9 28 7 31 -11 3 -20 -29 -9 -70 20 -70 50 0 20 31 55 50 55
3 0 16 -7 28 -16z m144 -8 c27 -40 -9 -95 -52 -81 -16 5 -20 2 -20 -14 0 -12
-4 -21 -10 -21 -6 0 -10 28 -10 64 0 63 1 65 28 68 32 4 54 -1 64 -16z m228 4
c30 -30 25 -40 -20 -40 -22 0 -40 -4 -40 -9 0 -13 34 -23 54 -15 9 3 16 1 16
-4 0 -17 -35 -23 -64 -13 -21 9 -26 17 -26 46 0 28 5 38 23 45 32 13 35 12 57
-10z m103 -1 c-19 -7 -23 -16 -23 -49 0 -25 -4 -39 -10 -35 -5 3 -10 24 -10
46 0 29 -4 39 -16 39 -8 0 -13 4 -10 8 2 4 24 6 48 4 36 -4 40 -6 21 -13z
m317 9 c0 -4 -7 -8 -15 -8 -11 0 -15 -11 -15 -39 0 -22 -4 -43 -10 -46 -6 -4
-10 12 -10 39 0 41 -3 46 -22 47 -18 1 -16 3 7 8 40 9 65 8 65 -1z m102 -7 c3
-3 7 -13 8 -21 5 -35 -1 -51 -25 -62 -55 -25 -103 52 -53 86 21 15 53 13 70
-3z m-1559 -48 c6 -54 0 -84 -10 -55 -6 14 -83 17 -83 2 0 -5 -4 -10 -10 -10
-5 0 -10 9 -10 19 0 11 5 23 10 26 6 3 10 19 10 34 0 36 6 41 50 41 l37 0 6
-57z m561 20 c7 -44 -10 -63 -56 -63 -27 0 -28 2 -28 50 l0 50 39 0 c37 0 39
-2 45 -37z m366 -13 c0 -27 -4 -50 -10 -50 -5 0 -10 7 -10 15 0 20 -19 19 -43
-2 -18 -17 -19 -17 -17 2 2 11 0 28 -5 38 -13 31 2 47 45 47 l40 0 0 -50z
m350 30 c0 -15 7 -20 25 -20 18 0 25 5 25 20 0 11 5 20 10 20 6 0 10 -23 10
-51 0 -31 -4 -48 -10 -44 -5 3 -10 13 -10 21 0 9 -10 14 -29 14 -28 0 -41 14
-41 46 0 8 5 14 10 14 6 0 10 -9 10 -20z m-90 -59 c0 -15 -12 -41 -19 -41 -3
0 -7 11 -7 25 -1 15 3 25 12 25 8 0 14 -4 14 -9z m-1162 -473 l3 -28 -80 0
c-79 0 -81 -1 -81 -24 0 -22 4 -24 66 -28 58 -4 70 -8 90 -32 32 -37 30 -71
-5 -107 -28 -28 -33 -29 -125 -29 l-96 0 0 140 0 141 113 -3 112 -3 3 -27z
m2087 -48 c26 -44 50 -80 54 -80 4 0 27 35 52 78 40 68 49 77 75 77 l29 0 3
-137 3 -138 -36 0 -35 0 0 73 c-1 79 -1 79 -52 -7 -24 -40 -31 -45 -47 -36
-11 5 -33 33 -50 62 l-31 53 0 -72 0 -73 -35 0 -35 0 0 140 0 140 29 0 c26 0
34 -9 76 -80z m-1874 -3 c26 -16 39 -60 39 -134 l0 -63 -52 -1 c-29 0 -68 -1
-87 -1 -24 -1 -39 5 -53 21 -40 51 -10 98 70 108 42 5 50 8 41 19 -13 16 -53
18 -79 4 -15 -8 -21 -6 -30 10 -14 26 -7 37 33 49 36 11 90 5 118 -12z m1319
-6 c124 -88 -18 -258 -146 -175 -60 40 -56 150 8 181 53 26 94 25 138 -6z
m1501 6 c26 -16 39 -60 39 -134 l0 -63 -52 -1 c-29 0 -68 -1 -85 -1 -40 -2
-73 26 -73 62 0 38 29 60 89 67 42 5 49 8 40 19 -13 16 -53 18 -79 4 -15 -8
-21 -6 -30 10 -14 26 -7 37 33 49 36 11 90 5 118 -12z m-2671 -27 l0 -40 45 0
45 0 0 40 c0 39 1 40 35 40 l35 0 0 -105 0 -105 -34 0 c-33 0 -35 2 -38 38 -3
36 -4 37 -43 37 -39 0 -40 -1 -43 -37 -3 -35 -6 -38 -33 -38 l-29 0 0 105 0
105 30 0 c28 0 30 -2 30 -40z m430 -40 c0 -64 3 -80 15 -80 11 0 15 -12 15
-50 0 -49 -1 -50 -30 -50 -25 0 -30 4 -30 25 0 24 -2 25 -75 25 -73 0 -75 -1
-75 -25 0 -21 -5 -25 -30 -25 -29 0 -30 2 -30 46 0 34 5 50 20 62 15 13 22 34
27 85 l6 67 93 0 94 0 0 -80z m125 38 c9 -24 21 -54 27 -68 9 -24 11 -21 37
40 25 59 31 65 59 68 18 2 32 1 32 -1 0 -3 -22 -58 -50 -123 -58 -138 -79
-164 -129 -164 -48 0 -65 12 -56 40 6 18 12 21 35 16 53 -10 54 12 5 124 -25
57 -45 104 -45 106 0 2 15 4 34 4 30 0 36 -4 51 -42z m245 2 c0 -53 21 -53 58
0 23 34 32 39 65 40 l38 0 -36 -46 c-19 -26 -35 -50 -35 -54 0 -4 13 -25 28
-46 47 -65 47 -64 4 -64 -35 0 -42 5 -66 40 -14 22 -33 40 -41 40 -11 0 -15
-11 -15 -40 0 -38 -2 -40 -30 -40 l-30 0 0 105 0 105 30 0 c28 0 30 -2 30 -40z
m622 23 c20 -18 24 -53 8 -69 -8 -8 -6 -15 5 -24 8 -7 15 -25 15 -41 0 -44
-31 -59 -122 -59 l-78 0 0 105 0 105 77 0 c57 0 81 -4 95 -17z m640 -40 l3
-57 45 57 c38 47 50 56 78 57 l32 0 0 -105 0 -105 -35 0 -35 0 0 53 0 52 -46
-52 c-36 -41 -52 -53 -75 -53 l-29 0 0 105 0 105 30 0 c28 0 29 -1 32 -57z
m286 30 l20 -28 22 28 c16 20 30 27 57 27 l35 0 -36 -49 c-20 -27 -36 -52 -36
-56 0 -4 13 -24 28 -44 47 -60 47 -61 5 -61 -33 0 -42 5 -57 31 l-18 31 -22
-31 c-17 -25 -28 -31 -59 -31 l-38 0 20 28 c11 15 29 38 40 52 l20 26 -40 52
-40 52 40 0 c31 0 43 -6 59 -27z m474 -30 l3 -57 45 57 c38 47 50 56 78 57
l32 0 0 -105 0 -105 -35 0 -35 0 0 53 0 52 -46 -52 c-36 -41 -52 -53 -75 -53
l-29 0 0 105 0 105 30 0 c28 0 29 -1 32 -57z m418 -48 l0 -105 -30 0 -30 0 0
80 0 80 -29 0 c-24 0 -29 -5 -35 -31 -3 -17 -6 -45 -6 -61 0 -37 -42 -81 -73
-76 -30 4 -36 45 -9 64 15 10 21 30 26 84 l7 70 90 0 89 0 0 -105z m-3609
-484 c32 -73 59 -135 59 -137 0 -2 -16 -4 -34 -4 -28 0 -37 5 -48 28 -12 24
-19 27 -70 30 -55 3 -57 2 -73 -27 -13 -26 -22 -31 -50 -31 l-34 0 50 113 c28
61 53 119 57 127 11 30 26 41 54 38 27 -3 34 -13 89 -137z m521 55 c20 -12 48
-65 48 -90 0 -17 -5 -18 -97 -17 -63 1 -73 -5 -51 -27 15 -15 70 -16 84 -2 13
13 49 -24 40 -39 -4 -6 -25 -15 -48 -22 -79 -21 -158 31 -158 106 0 51 31 89
90 109 19 6 69 -3 92 -18z m509 3 c9 -4 21 -14 27 -22 10 -12 7 -18 -13 -31
-23 -15 -27 -15 -41 -1 -32 31 -84 7 -84 -40 0 -46 53 -72 82 -41 11 12 17 12
41 -1 27 -14 28 -15 12 -33 -50 -55 -157 -43 -191 22 -24 46 -18 84 22 136 1
2 20 10 41 17 37 13 70 11 104 -6z m246 -6 c23 -15 52 -88 40 -99 -4 -4 -40
-6 -82 -5 -74 2 -86 -4 -63 -27 15 -15 70 -16 84 -2 13 13 49 -24 40 -39 -4
-6 -25 -15 -48 -22 -79 -21 -158 31 -158 106 0 51 31 89 90 109 21 7 71 -4 97
-21z m245 3 c22 -14 50 -71 46 -94 -3 -14 -16 -16 -81 -16 -42 1 -77 -2 -77
-6 0 -26 74 -42 96 -20 13 13 49 -24 40 -39 -4 -6 -25 -15 -48 -22 -79 -21
-158 31 -158 106 0 51 31 89 90 109 19 6 69 -3 92 -18z m-1222 -91 l0 -105
-30 0 -30 0 0 80 0 80 -30 0 c-28 0 -29 -2 -36 -62 -8 -70 -38 -112 -77 -106
-30 4 -37 53 -9 60 20 6 32 49 32 121 l0 37 90 0 90 0 0 -105z m380 65 c0 -53
21 -53 58 0 23 34 32 39 65 40 l38 0 -36 -46 c-19 -26 -35 -50 -35 -54 0 -4
13 -25 28 -46 47 -65 47 -64 4 -64 -35 0 -42 5 -66 40 -14 22 -33 40 -41 40
-11 0 -15 -11 -15 -40 0 -38 -2 -40 -30 -40 l-30 0 0 105 0 105 30 0 c28 0 30
-2 30 -40z m1113 26 c19 -15 23 -56 7 -72 -8 -8 -6 -15 5 -24 8 -7 15 -25 15
-41 0 -44 -31 -59 -122 -59 l-78 0 0 105 0 105 78 0 c48 -1 84 -6 95 -14z
m129 -43 l3 -58 45 57 c38 48 50 57 78 57 l32 1 0 -105 0 -105 -35 0 -35 0 0
53 0 52 -46 -52 c-36 -41 -52 -53 -75 -53 l-29 0 0 105 0 105 30 0 c28 0 29
-1 32 -57z m278 12 c0 -45 0 -45 35 -45 35 0 35 0 35 45 0 45 0 45 35 45 l35
0 0 -105 0 -105 -35 0 c-33 0 -35 2 -35 33 0 32 0 32 -51 32 -66 0 -89 25 -89
96 l0 49 35 0 c35 0 35 0 35 -45z m1710 -2715 c30 -30 25 -65 -16 -110 l-36
-40 36 0 c29 0 36 -4 36 -20 0 -18 -7 -20 -65 -20 -52 0 -65 3 -65 15 0 23 24
67 49 89 12 11 21 30 21 43 0 28 -16 31 -23 3 -3 -12 -14 -20 -26 -20 -14 0
-21 6 -21 20 0 28 35 60 65 60 14 0 34 -9 45 -20z m140 0 c16 -16 20 -33 20
-89 0 -81 -13 -101 -65 -101 -52 0 -65 20 -65 102 0 52 4 76 17 90 21 24 68
23 93 -2z m222 3 c20 -18 24 -58 7 -69 -8 -4 -8 -9 0 -17 15 -15 14 -80 -1
-95 -16 -16 -70 -15 -91 1 -9 6 -18 23 -19 37 -4 33 37 42 47 11 7 -24 20 -27
28 -8 6 17 -3 32 -25 40 -24 9 -23 28 2 34 11 3 20 14 20 24 0 23 -18 25 -26
4 -7 -16 -39 -20 -48 -6 -3 5 4 20 15 35 24 30 63 34 91 9z m156 -5 c3 -15 -4
-18 -37 -18 -30 0 -41 -4 -41 -15 0 -11 7 -14 24 -9 35 9 56 -19 56 -75 0 -56
-12 -71 -60 -71 -42 0 -60 14 -60 47 0 27 37 33 46 8 10 -26 24 -17 24 15 0
30 -1 31 -35 24 l-35 -6 0 54 c0 30 3 58 7 62 4 4 30 6 58 4 38 -2 51 -7 53
-20z m-4448 -29 c0 -22 -25 -26 -33 -5 -6 16 12 38 25 30 4 -3 8 -14 8 -25z
m303 -5 l25 -35 22 35 c12 20 26 36 31 36 5 0 9 -29 9 -65 0 -37 -4 -65 -10
-65 -5 0 -10 19 -10 43 -1 39 -2 40 -15 23 -8 -10 -16 -24 -19 -30 -3 -6 -13
-1 -25 13 l-21 23 0 -36 c0 -25 -4 -36 -15 -36 -12 0 -15 13 -15 58 0 51 5 72
16 72 2 0 14 -16 27 -36z m598 -4 c12 0 21 -9 25 -25 8 -33 -1 -56 -26 -62
-11 -3 -20 -12 -20 -19 0 -8 -4 -14 -10 -14 -5 0 -10 7 -10 15 0 8 -7 15 -15
15 -24 0 -39 43 -26 69 7 11 18 21 25 21 8 0 17 10 21 23 l8 22 4 -22 c3 -14
12 -23 24 -23z m-701 -5 c0 -19 -4 -35 -10 -35 -5 0 -10 16 -10 35 0 19 5 35
10 35 6 0 10 -16 10 -35z m2188 -57 l-3 -92 -255 -92 c-140 -51 -256 -88 -258
-83 -2 5 22 64 54 131 31 68 67 147 80 176 l24 52 180 0 181 0 -3 -92z m302
71 c0 6 14 11 30 11 23 0 30 -4 30 -20 0 -11 -8 -24 -17 -27 -10 -4 -22 -11
-26 -17 -6 -8 -10 -7 -14 1 -4 10 -9 10 -26 -2 -19 -13 -23 -13 -39 2 -22 20
-23 31 -2 54 15 17 18 17 40 2 15 -9 24 -11 24 -4z m-2747 -3 c4 4 14 -7 24
-24 l17 -30 18 29 c10 17 22 27 27 24 5 -3 12 1 15 7 3 10 8 9 18 -3 7 -9 18
-14 24 -12 11 4 15 -10 16 -65 1 -33 -25 -72 -47 -72 -7 0 -15 -9 -18 -20 -6
-25 1 -26 19 -2 12 15 15 15 24 2 11 -17 -14 -42 -35 -34 -7 3 -15 -4 -18 -15
-3 -15 -13 -21 -32 -21 -33 0 -68 18 -60 31 4 5 2 9 -4 9 -5 0 -11 -6 -14 -12
-3 -7 -10 1 -16 17 -6 17 -17 42 -25 56 -7 15 -13 46 -11 70 3 59 3 59 19 53
7 -3 16 2 20 12 5 12 9 14 20 5 7 -6 16 -8 19 -5z m2553 -46 c9 0 14 11 14 30
0 17 4 30 9 30 11 0 19 -80 9 -86 -4 -3 -8 0 -8 5 0 6 -11 11 -25 11 -23 0
-25 4 -23 38 1 36 1 36 5 5 3 -20 10 -33 19 -33z m64 43 c1 -17 1 -17 14 0 20
25 26 21 26 -18 0 -19 -5 -35 -11 -35 -5 0 -8 4 -4 9 3 5 1 12 -4 15 -5 3 -11
-1 -15 -9 -10 -27 -26 -15 -26 20 0 35 20 51 20 18z m255 -18 c0 -25 -4 -30
-25 -30 -16 0 -26 6 -28 18 -6 30 6 49 30 45 18 -2 23 -9 23 -33z m67 12 c7
-34 -1 -47 -28 -47 -21 0 -24 5 -24 35 0 30 3 35 24 35 17 0 25 -7 28 -23z
m61 -7 c14 -38 26 -39 24 -3 -2 22 3 29 21 31 19 3 22 -1 22 -35 0 -28 -3 -34
-10 -23 -7 11 -12 12 -17 4 -6 -9 -93 -16 -93 -8 0 0 5 15 11 33 14 39 28 40
42 1z m-2513 -17 l1 -28 22 28 c13 15 26 27 30 27 4 0 7 -20 7 -45 0 -25 -4
-45 -10 -45 -5 0 -10 12 -10 28 l-1 27 -20 -27 c-29 -39 -39 -35 -39 17 0 25
5 45 10 45 6 0 10 -12 10 -27z m110 12 c0 -8 7 -15 15 -15 8 0 15 7 15 15 0 8
5 15 10 15 6 0 10 -20 10 -45 0 -25 -4 -45 -10 -45 -5 0 -10 9 -10 20 0 11 -7
20 -15 20 -8 0 -15 -9 -15 -20 0 -11 -7 -20 -15 -20 -11 0 -15 12 -15 45 0 33
4 45 15 45 8 0 15 -7 15 -15z m100 -20 c0 -24 5 -35 15 -35 10 0 15 11 15 35
0 19 5 35 10 35 6 0 10 -14 10 -30 0 -17 5 -39 12 -50 7 -10 8 -23 4 -27 -5
-4 -11 -2 -13 5 -3 6 -21 12 -41 12 l-37 0 0 45 c0 29 4 45 13 45 7 0 12 -14
12 -35z m100 9 l0 -27 21 27 c29 37 39 32 39 -19 0 -31 -4 -45 -14 -45 -9 0
-12 9 -9 28 l4 27 -25 -27 c-14 -16 -28 -28 -31 -28 -3 0 -5 20 -5 45 0 25 5
45 10 45 6 0 10 -12 10 -26z m288 -7 c4 -32 -13 -57 -38 -57 -10 0 -20 -10
-23 -22 -8 -31 -15 -20 -18 27 -4 84 -3 87 39 83 32 -3 37 -7 40 -31z m42 18
c0 -8 9 -15 19 -15 10 0 21 -7 25 -15 10 -26 -5 -45 -35 -45 -28 0 -29 2 -29
45 0 25 5 45 10 45 6 0 10 -7 10 -15z m80 -30 c0 -25 -4 -45 -10 -45 -5 0 -10
20 -10 45 0 25 5 45 10 45 6 0 10 -20 10 -45z m1365 -75 c0 -28 -4 -35 -20
-35 -15 0 -20 7 -21 30 -1 38 4 47 24 43 12 -2 17 -14 17 -38z m35 23 c0 -15
2 -14 14 3 8 10 18 16 22 12 4 -4 1 -15 -6 -23 -10 -12 -10 -19 -2 -27 21 -21
13 -32 -8 -13 -18 16 -20 16 -20 2 0 -10 -4 -17 -10 -17 -5 0 -10 18 -10 40 0
22 5 40 10 40 6 0 10 -8 10 -17z m104 -5 c14 -23 -3 -53 -30 -53 -20 0 -31 33
-20 61 7 19 35 14 50 -8z m36 7 c0 -8 5 -15 10 -15 6 0 10 7 10 15 0 8 5 15
10 15 6 0 10 -18 10 -40 0 -22 -4 -40 -10 -40 -5 0 -10 7 -10 15 0 20 -10 19
-26 -2 -12 -16 -13 -13 -14 25 0 23 5 42 10 42 6 0 10 -7 10 -15z m108 -19 c4
-35 -9 -50 -37 -41 -15 4 -21 15 -21 35 0 48 53 54 58 6z m43 12 l12 -23 10
23 c15 34 27 26 27 -18 0 -22 -4 -40 -10 -40 -5 0 -10 6 -11 13 0 10 -2 10 -6
0 -7 -19 -23 -16 -24 5 -1 16 -2 16 -6 0 -8 -33 -23 -18 -23 22 0 44 13 52 31
18z m79 5 c1 -17 1 -17 14 0 20 26 26 21 25 -25 -1 -24 -3 -35 -6 -25 -6 21
-19 22 -27 2 -11 -29 -26 -15 -26 25 0 38 20 60 20 23z m70 0 c1 -16 2 -16 15
1 8 11 18 17 21 13 4 -4 1 -13 -5 -21 -13 -15 -7 -36 9 -36 4 0 13 14 19 30 5
17 14 30 18 30 12 0 37 -70 28 -78 -4 -4 -10 -1 -12 6 -5 14 -33 16 -33 2 0
-15 -21 -12 -42 7 -17 15 -18 15 -18 -1 0 -9 -4 -14 -10 -11 -5 3 -10 22 -10
41 0 34 20 50 20 17z m-2646 -26 c17 -18 28 -21 40 -15 39 22 74 -17 62 -68
-5 -19 -13 -24 -40 -24 -34 0 -46 13 -46 50 0 16 -2 17 -35 1 -19 -9 -34 -23
-35 -33 0 -10 -4 -18 -10 -18 -11 0 -14 113 -3 123 13 14 45 6 67 -16z m3816
-7 c0 -13 -7 -20 -20 -20 -13 0 -20 7 -20 20 0 13 7 20 20 20 13 0 20 -7 20
-20z m-3628 -15 c-1 -5 -10 -10 -18 -10 -26 0 -40 -30 -24 -50 7 -9 19 -14 26
-11 7 3 16 1 19 -4 4 -6 -9 -10 -28 -10 -35 0 -47 12 -47 50 0 26 29 52 54 48
11 -2 20 -7 18 -13z m83 5 c3 -5 -3 -10 -13 -10 -11 0 -25 -7 -33 -16 -17 -21
1 -50 30 -47 12 2 21 -2 21 -7 0 -6 -15 -10 -34 -10 -34 0 -46 13 -46 48 0 36
58 69 75 42z m59 -27 c28 42 46 35 46 -18 0 -25 -4 -45 -10 -45 -5 0 -10 15
-10 33 l0 32 -26 -32 c-14 -18 -30 -33 -35 -33 -11 0 -12 83 -1 94 4 4 9 -7
12 -26 l5 -33 19 28z m86 5 l0 -21 23 21 c13 12 26 22 30 22 4 0 7 -20 7 -45
0 -25 -4 -45 -10 -45 -5 0 -10 12 -10 28 l-1 27 -24 -27 c-13 -16 -29 -28 -35
-28 -11 0 -14 82 -4 93 11 11 24 -3 24 -25z m-560 -39 c0 -16 -4 -29 -10 -29
-5 0 -10 16 -10 36 0 21 4 33 10 29 6 -3 10 -19 10 -36z m3646 -8 c17 14 18 8
2 -26 -15 -34 -23 -32 -24 8 -1 17 1 26 3 19 4 -10 8 -10 19 -1z m64 -1 c8 12
10 9 10 -14 0 -23 -3 -26 -14 -17 -11 10 -15 8 -19 -6 -3 -10 -5 -2 -6 17 0
26 2 31 9 20 9 -13 11 -13 20 0z m43 -9 c2 -10 1 -25 -4 -32 -6 -10 -9 -4 -9
19 0 36 5 42 13 13z m26 -13 c0 -27 -2 -29 -8 -13 -5 11 -6 26 -4 33 8 21 13
13 12 -20z m59 5 c-3 -30 -25 -42 -34 -19 -9 22 2 46 21 46 12 0 15 -8 13 -27z
m57 19 c-16 -11 -17 -34 -3 -44 9 -7 7 -8 -7 -6 -13 2 -21 12 -23 31 -3 23 0
27 20 27 13 0 19 -4 13 -8z m62 -9 c2 -6 -5 -17 -16 -23 -19 -10 -21 -8 -21
15 0 19 5 26 17 23 9 -2 18 -8 20 -15z m46 10 c-7 -2 -13 -14 -13 -24 0 -11 5
-17 10 -14 6 3 10 1 10 -5 0 -23 -25 -3 -28 23 -3 21 1 27 15 26 10 0 13 -3 6
-6z m64 -2 c10 9 13 5 13 -17 0 -20 -3 -25 -9 -15 -6 9 -11 10 -15 2 -13 -20
-26 -12 -26 16 0 21 3 24 12 15 8 -8 15 -9 25 -1z m67 1 c-7 -4 -14 -16 -16
-27 -3 -17 -5 -15 -10 8 -4 23 -2 27 16 27 13 0 16 -3 10 -8z m51 0 c-12 -8
-13 -22 -2 -39 5 -9 3 -13 -7 -13 -11 0 -16 9 -16 30 0 22 5 30 18 30 10 0 13
-3 7 -8z m59 0 c-7 -4 -14 -18 -16 -32 -3 -23 -4 -22 -9 8 -5 27 -3 32 15 32
13 0 17 -3 10 -8z"/>
<path d="M810 7850 l0 -199 120 -78 c191 -123 363 -234 436 -280 l66 -43 554
0 554 0 0 103 0 102 -88 90 c-48 50 -150 158 -227 240 -77 82 -164 176 -194
207 l-54 58 -584 0 -583 0 0 -200z m178 88 l3 -58 79 0 80 0 0 60 0 60 40 0
40 0 0 -100 0 -100 -45 0 -46 0 41 -53 c22 -30 40 -59 40 -65 0 -7 -15 -12
-35 -12 -37 0 -57 16 -106 88 -24 33 -36 42 -59 42 -29 0 -29 -1 -32 -62 l-3
-63 -37 -3 -38 -3 0 166 0 166 38 -3 37 -3 3 -57z m607 -103 l0 -160 -160 0
-160 0 -3 163 -2 162 162 -2 163 -3 0 -160z m375 40 c0 -119 1 -125 20 -125
19 0 21 -5 18 -72 l-3 -73 -37 -3 c-37 -3 -38 -3 -38 32 l0 36 -104 0 -105 0
-3 -32 c-3 -30 -6 -33 -40 -36 l-38 -3 0 75 c0 61 3 76 15 76 12 0 15 15 15
71 0 65 3 75 38 125 l37 54 113 0 112 0 0 -125z m-430 -490 c0 -11 -12 -16
-42 -17 l-43 -1 43 -4 c41 -4 42 -5 42 -39 l0 -34 -55 0 -55 0 0 55 0 55 55 0
c42 0 55 -3 55 -15z m60 -5 c0 -13 7 -20 19 -20 10 0 21 9 24 20 11 41 27 20
27 -35 l0 -55 -50 0 c-38 0 -50 4 -50 15 0 10 12 16 38 17 l37 1 -37 4 c-36 4
-38 6 -38 39 0 24 5 34 15 34 8 0 15 -9 15 -20z m214 -42 c6 -56 -1 -90 -11
-60 -5 14 -73 17 -73 2 0 -5 -7 -10 -15 -10 -18 0 -19 25 -4 71 17 49 28 59
64 59 32 0 32 0 39 -62z m66 42 c0 -15 7 -20 25 -20 18 0 25 5 25 20 0 11 7
20 15 20 12 0 15 -13 15 -55 l0 -55 -50 0 c-38 0 -50 4 -50 15 0 10 12 16 38
17 l37 1 -37 4 c-36 4 -38 6 -38 39 0 19 5 34 10 34 6 0 10 -9 10 -20z m142
-22 l1 -43 4 43 c3 28 9 42 19 42 10 0 15 -13 16 -42 l1 -43 4 43 c5 48 33 61
33 15 0 -16 3 -45 6 -65 5 -31 4 -38 -10 -38 -9 0 -16 5 -16 10 0 6 -20 10
-45 10 l-45 0 0 55 c0 42 3 55 15 55 11 0 16 -12 17 -42z m218 27 c0 -11 -12
-16 -42 -17 l-43 -1 43 -4 c28 -3 42 -9 42 -19 0 -10 -13 -15 -42 -16 l-43 -1
43 -4 c60 -6 49 -27 -16 -31 l-52 -3 0 55 0 56 55 0 c42 0 55 -3 55 -15z m130
0 c0 -11 -11 -15 -40 -15 l-40 0 0 -40 c0 -22 -4 -40 -10 -40 -5 0 -10 25 -10
55 l0 55 50 0 c38 0 50 -4 50 -15z m140 -40 l0 -55 -55 0 -55 0 0 55 0 55 55
0 55 0 0 -55z"/>
<path d="M1350 7835 l0 -86 83 3 82 3 3 83 3 82 -86 0 -85 0 0 -85z"/>
<path d="M1771 7891 c-15 -21 -21 -45 -21 -85 l0 -56 70 0 70 0 0 85 0 85 -49
0 c-43 0 -52 -4 -70 -29z"/>
<path d="M1473 7323 c9 -2 23 -2 30 0 6 3 -1 5 -18 5 -16 0 -22 -2 -12 -5z"/>
<path d="M1747 7363 c-15 -15 -7 -43 13 -43 15 0 20 7 20 25 0 24 -18 34 -33
18z"/>
<path d="M2430 7345 c0 -20 5 -25 25 -25 20 0 25 5 25 25 0 20 -5 25 -25 25
-20 0 -25 -5 -25 -25z"/>
<path d="M3265 6368 c-29 -17 -35 -28 -35 -75 0 -33 5 -46 26 -62 15 -12 35
-21 45 -21 17 0 19 9 19 85 0 91 -7 100 -55 73z"/>
<path d="M3440 6291 l0 -88 25 5 c39 7 75 50 75 89 0 41 -37 83 -75 83 -25 0
-25 0 -25 -89z"/>
<path d="M1870 6350 l0 -60 50 0 c62 0 96 27 85 68 -9 37 -33 51 -87 52 l-48
0 0 -60z"/>
<path d="M4910 6365 c0 -2 -9 -27 -20 -55 l-20 -50 49 0 49 0 -21 55 c-12 30
-25 55 -29 55 -5 0 -8 -2 -8 -5z"/>
<path d="M1172 5848 c-13 -13 -16 -46 -6 -72 9 -24 43 -19 53 6 17 48 -17 96
-47 66z"/>
<path d="M1299 5836 c-9 -20 -9 -32 0 -52 22 -49 74 -10 55 43 -13 37 -41 42
-55 9z"/>
<path d="M1781 5846 c-7 -8 -11 -30 -9 -48 2 -28 7 -33 28 -33 21 0 26 5 28
33 3 31 -11 62 -28 62 -4 0 -13 -6 -19 -14z"/>
<path d="M2159 5833 c-21 -56 29 -101 53 -48 8 19 8 31 0 50 -15 33 -40 32
-53 -2z"/>
<path d="M2294 5849 c-9 -15 12 -33 30 -26 9 4 16 13 16 22 0 17 -35 21 -46 4z"/>
<path d="M2290 5780 c0 -17 5 -21 28 -18 16 2 27 9 27 18 0 9 -11 16 -27 18
-23 3 -28 -1 -28 -18z"/>
<path d="M967 5854 c-9 -10 2 -24 19 -24 8 0 14 7 14 15 0 15 -21 21 -33 9z"/>
<path d="M1073 5283 c-18 -7 -16 -52 3 -60 23 -9 51 23 38 44 -12 19 -23 24
-41 16z"/>
<path d="M1392 5278 c-16 -16 -15 -33 4 -48 22 -19 54 12 38 37 -14 22 -27 26
-42 11z"/>
<path d="M1630 5275 c-11 -13 -8 -15 20 -15 28 0 31 2 20 15 -7 8 -16 15 -20
15 -4 0 -13 -7 -20 -15z"/>
<path d="M1762 5278 c-25 -25 0 -64 32 -52 21 8 21 50 0 58 -20 8 -18 8 -32
-6z"/>
<path d="M2003 5283 c-22 -8 -14 -23 13 -23 15 0 24 5 22 12 -5 14 -18 18 -35
11z"/>
<path d="M2509 5274 c-16 -20 0 -49 27 -49 35 0 28 64 -7 65 -4 0 -12 -7 -20
-16z"/>
<path d="M946 5278 c-16 -50 -14 -58 10 -58 21 0 24 5 24 35 0 25 -4 35 -15
35 -9 0 -17 -6 -19 -12z"/>
<path d="M1510 5275 c0 -8 9 -15 20 -15 11 0 20 7 20 15 0 8 -9 15 -20 15 -11
0 -20 -7 -20 -15z"/>
<path d="M1510 5235 c0 -11 7 -15 23 -13 12 2 22 8 22 13 0 6 -10 11 -22 13
-16 2 -23 -2 -23 -13z"/>
<path d="M1881 5281 c-18 -11 -5 -31 20 -31 12 0 19 7 19 20 0 21 -16 26 -39
11z"/>
<path d="M880 4584 l0 -35 46 3 c88 6 81 68 -8 68 -37 0 -38 -1 -38 -36z"/>
<path d="M1167 4583 c-23 -6 -18 -37 6 -41 21 -4 47 15 47 34 0 14 -18 16 -53
7z"/>
<path d="M2466 4644 c-32 -32 -10 -94 34 -94 45 0 66 62 32 93 -23 21 -46 22
-66 1z"/>
<path d="M3970 4565 c0 -33 57 -30 68 3 2 8 -9 12 -32 12 -26 0 -36 -4 -36
-15z"/>
<path d="M1700 4631 c0 -16 -4 -41 -10 -55 -9 -25 -8 -26 30 -26 l40 0 0 55
c0 54 0 55 -30 55 -27 0 -30 -3 -30 -29z"/>
<path d="M2715 4662 c-16 -17 -2 -32 30 -32 24 0 35 5 35 15 0 8 -3 16 -7 16
-29 5 -53 5 -58 1z"/>
<path d="M2715 4582 c-3 -3 -5 -13 -5 -23 0 -15 6 -18 29 -15 38 4 55 16 43
28 -11 11 -59 18 -67 10z"/>
<path d="M920 4143 c-8 -21 -16 -41 -18 -45 -2 -5 13 -8 33 -8 33 0 36 2 29
23 -3 12 -12 32 -18 45 -12 22 -12 22 -26 -15z"/>
<path d="M1450 4125 c-11 -13 -6 -15 34 -15 45 0 61 12 30 24 -26 10 -51 7
-64 -9z"/>
<path d="M2200 4125 c-11 -13 -6 -15 35 -15 41 0 46 2 35 15 -7 8 -23 15 -35
15 -12 0 -28 -7 -35 -15z"/>
<path d="M2450 4125 c-11 -13 -6 -15 35 -15 41 0 46 2 35 15 -7 8 -23 15 -35
15 -12 0 -28 -7 -35 -15z"/>
<path d="M2710 4129 c0 -15 7 -19 35 -19 24 0 35 5 35 15 0 8 -3 16 -7 16 -56
9 -63 7 -63 -12z"/>
<path d="M2723 4063 c-7 -2 -13 -13 -13 -24 0 -16 5 -18 33 -12 46 8 55 21 23
33 -15 5 -28 10 -29 9 -1 0 -8 -3 -14 -6z"/>
<path d="M5020 1346 c0 -53 3 -66 15 -66 13 0 15 11 13 62 -2 38 -8 63 -15 66
-10 3 -13 -14 -13 -62z"/>
<path d="M1848 1363 c-6 -22 1 -43 13 -43 5 0 9 14 9 30 0 33 -15 41 -22 13z"/>
<path d="M1890 1351 c0 -21 5 -31 16 -31 11 0 14 8 12 27 -4 39 -28 42 -28 4z"/>
<path d="M3190 1375 c0 -8 2 -15 4 -15 2 0 6 7 10 15 3 8 1 15 -4 15 -6 0 -10
-7 -10 -15z"/>
<path d="M3346 1273 c-6 -14 -5 -15 5 -6 7 7 10 15 7 18 -3 3 -9 -2 -12 -12z"/>
<path d="M3375 1279 c-4 -6 -5 -12 -2 -15 2 -3 7 2 10 11 7 17 1 20 -8 4z"/>
<path d="M3720 1390 c0 -5 7 -10 16 -10 8 0 12 5 9 10 -3 6 -10 10 -16 10 -5
0 -9 -4 -9 -10z"/>
<path d="M3641 1374 c0 -11 3 -14 6 -6 3 7 2 16 -1 19 -3 4 -6 -2 -5 -13z"/>
<path d="M3671 1374 c0 -11 3 -14 6 -6 3 7 2 16 -1 19 -3 4 -6 -2 -5 -13z"/>
<path d="M921 1371 c-8 -5 -9 -11 -3 -15 5 -3 12 1 16 9 6 17 6 18 -13 6z"/>
<path d="M1057 1365 c3 -8 9 -12 14 -9 12 7 11 11 -5 17 -10 4 -13 1 -9 -8z"/>
<path d="M946 1341 c-4 -5 -2 -12 3 -15 5 -4 12 -2 15 3 4 5 2 12 -3 15 -5 4
-12 2 -15 -3z"/>
<path d="M1023 1330 c3 -11 1 -20 -4 -20 -4 0 -6 -7 -3 -15 4 -8 1 -15 -6 -15
-7 0 -10 -6 -7 -13 3 -8 -1 -14 -9 -14 -8 0 -14 6 -14 14 0 7 -4 13 -10 13 -6
0 -6 -9 -1 -22 4 -13 6 -30 4 -38 -3 -10 -2 -11 4 -4 4 6 16 10 26 8 9 -1 15
2 12 6 -3 5 3 31 14 59 18 49 18 61 -2 61 -5 0 -7 -9 -4 -20z"/>
<path d="M970 1310 c-12 -8 -11 -10 8 -10 12 0 22 5 22 10 0 13 -11 13 -30 0z"/>
<path d="M910 1240 c15 -27 26 -31 26 -10 0 10 -8 21 -18 23 -14 4 -16 2 -8
-13z"/>
<path d="M3783 1384 c-8 -22 15 -44 26 -25 10 16 4 41 -10 41 -5 0 -12 -7 -16
-16z"/>
<path d="M3860 1389 c0 -5 5 -7 10 -4 6 3 10 8 10 11 0 2 -4 4 -10 4 -5 0 -10
-5 -10 -11z"/>
<path d="M3860 1360 c0 -5 5 -10 10 -10 6 0 10 5 10 10 0 6 -4 10 -10 10 -5 0
-10 -4 -10 -10z"/>
<path d="M3990 1390 c0 -5 5 -10 10 -10 6 0 10 5 10 10 0 6 -4 10 -10 10 -5 0
-10 -4 -10 -10z"/>
<path d="M1987 1374 c-4 -4 -7 -18 -7 -31 0 -18 5 -24 18 -21 10 2 17 12 17
27 0 24 -15 37 -28 25z"/>
<path d="M2080 1330 c0 -5 7 -10 15 -10 8 0 15 5 15 10 0 6 -7 10 -15 10 -8 0
-15 -4 -15 -10z"/>
<path d="M3498 1283 c7 -3 16 -2 19 1 4 3 -2 6 -13 5 -11 0 -14 -3 -6 -6z"/>
<path d="M3625 1280 c-7 -12 2 -30 16 -30 5 0 9 9 9 20 0 21 -15 27 -25 10z"/>
<path d="M3770 1270 c0 -13 5 -20 13 -17 6 2 12 10 12 17 0 7 -6 15 -12 18 -8
2 -13 -5 -13 -18z"/>
<path d="M1306 1263 c-3 -3 -6 -15 -6 -25 0 -21 23 -24 39 -4 10 12 8 17 -7
25 -11 6 -22 7 -26 4z"/>
<path d="M1395 1229 c-10 -16 4 -59 19 -59 17 0 28 27 21 51 -7 21 -30 25 -40
8z"/>
<path d="M5140 1169 c0 -5 5 -7 10 -4 6 3 10 8 10 11 0 2 -4 4 -10 4 -5 0 -10
-5 -10 -11z"/>
<path d="M7248 8054 c-77 -41 -81 -172 -6 -227 31 -23 100 -26 124 -6 14 11
18 11 21 2 3 -7 20 -13 39 -13 l34 0 0 130 0 130 -34 0 c-19 0 -36 -5 -38 -11
-3 -9 -9 -9 -25 0 -30 15 -82 13 -115 -5z m125 -76 c24 -28 21 -55 -9 -84 -19
-20 -31 -24 -52 -19 -57 13 -71 79 -25 114 30 24 58 20 86 -11z"/>
<path d="M7536 8063 c-3 -4 -6 -62 -6 -130 l0 -123 35 0 34 0 3 58 3 57 33
-45 c19 -25 37 -51 41 -58 5 -9 22 -12 49 -10 l41 3 -45 59 c-24 33 -44 62
-44 65 0 3 18 30 40 59 22 29 40 57 40 62 0 6 -17 10 -37 10 -34 0 -41 -5 -66
-44 -47 -75 -57 -77 -57 -14 0 54 -1 55 -29 56 -16 0 -32 -2 -35 -5z"/>
<path d="M7831 8044 c-91 -76 -41 -237 73 -237 25 0 53 6 62 14 13 11 18 11
21 2 3 -7 20 -13 39 -13 l34 0 0 130 0 130 -32 -2 c-18 -1 -36 -6 -39 -11 -4
-5 -15 -4 -27 2 -38 20 -98 13 -131 -15z m138 -60 c23 -21 18 -74 -8 -96 -28
-22 -50 -23 -79 -2 -22 15 -30 66 -14 90 22 33 71 37 101 8z"/>
<path d="M8494 8060 c-48 -19 -84 -99 -70 -155 11 -43 58 -86 101 -94 50 -9
100 1 126 25 20 18 20 19 2 32 -12 9 -33 11 -65 7 -46 -7 -88 6 -88 25 0 6 39
10 90 10 97 0 95 -1 90 59 -6 76 -105 124 -186 91z m97 -60 c10 -6 19 -17 19
-25 0 -11 -13 -15 -55 -15 -57 0 -66 8 -39 34 18 18 47 20 75 6z"/>
<path d="M8740 7940 l0 -130 35 0 34 0 3 67 3 67 28 -42 c15 -23 31 -42 35
-42 5 0 19 19 33 43 l24 42 3 -67 3 -68 34 0 35 0 0 125 c0 103 -3 127 -15
131 -28 11 -60 -5 -79 -41 -33 -60 -41 -61 -75 -5 -28 45 -35 50 -66 50 l-35
0 0 -130z"/>
<path d="M9087 8063 c-4 -3 -7 -62 -7 -130 l0 -123 24 0 c17 0 42 20 85 68
l61 67 0 -67 0 -68 35 0 36 0 -3 128 c-3 125 -3 127 -26 128 -16 1 -40 -18
-82 -65 l-60 -66 0 68 c0 67 0 67 -28 67 -16 0 -32 -3 -35 -7z"/>
<path d="M9448 8063 c-56 -9 -84 -79 -53 -133 8 -14 17 -30 20 -37 4 -7 -5
-28 -20 -48 l-27 -35 43 0 c40 1 47 5 72 41 31 45 47 43 47 -7 0 -32 2 -34 35
-34 l35 0 0 130 0 130 -62 -1 c-35 -1 -75 -4 -90 -6z m82 -88 c0 -22 -4 -25
-34 -25 -37 0 -51 12 -42 35 3 9 19 15 41 15 31 0 35 -3 35 -25z"/>
<path d="M8150 7986 c0 -87 -5 -106 -31 -106 -17 0 -19 -8 -19 -70 l0 -70 35
0 c28 0 35 4 35 19 0 45 9 51 81 51 l69 0 0 -35 c0 -33 2 -35 35 -35 l35 0 0
70 c0 56 -3 70 -15 70 -12 0 -15 17 -15 90 l0 90 -105 0 -105 0 0 -74z m140
-46 l0 -60 -40 0 c-38 0 -39 1 -30 26 6 14 10 41 10 60 0 31 2 34 30 34 l30 0
0 -60z"/>
<path d="M7952 7673 c-12 -2 -33 -19 -47 -37 -35 -46 -34 -96 3 -137 24 -27
36 -32 74 -33 45 -1 88 22 88 47 0 6 -6 3 -12 -6 -33 -44 -122 -37 -151 12
-34 58 -10 121 58 145 39 14 34 18 -13 9z"/>
<path d="M7200 7570 c0 -60 4 -100 10 -100 6 0 10 38 10 95 l0 95 60 0 59 0 4
-97 3 -98 2 103 2 102 -75 0 -75 0 0 -100z"/>
<path d="M7432 7568 c1 -57 3 -84 5 -60 l4 42 43 0 c49 0 76 22 76 62 0 38
-29 58 -83 58 l-47 0 2 -102z m110 67 c8 -19 8 -31 0 -50 -10 -21 -18 -25 -57
-25 l-45 0 0 50 0 50 45 0 c39 0 47 -4 57 -25z"/>
<path d="M7658 7658 c-47 -39 -59 -88 -33 -138 30 -58 106 -74 163 -35 28 20
46 84 33 119 -13 34 -47 66 -68 66 -13 -1 -10 -5 9 -16 35 -18 48 -43 48 -88
0 -82 -98 -122 -157 -63 -48 47 -30 132 32 158 14 5 15 8 4 8 -8 1 -22 -5 -31
-11z"/>
<path d="M8033 7654 c15 -8 27 -20 27 -26 0 -6 3 -8 7 -5 9 10 -27 47 -46 47
-10 -1 -5 -7 12 -16z"/>
<path d="M8140 7570 l0 -100 58 0 c32 0 63 5 70 12 17 17 15 63 -3 78 -11 9
-13 16 -5 24 14 14 13 59 -2 74 -7 7 -36 12 -65 12 l-53 0 0 -100z m110 75
c16 -19 4 -65 -17 -65 -11 0 -8 -6 11 -21 50 -40 28 -79 -46 -79 l-48 0 0 90
0 90 44 0 c26 0 48 -6 56 -15z"/>
<path d="M8350 7570 l0 -100 58 2 57 2 -52 3 -53 4 0 89 0 89 53 4 52 3 -57 2
-58 2 0 -100z"/>
<path d="M8532 7573 l-2 -103 119 0 120 0 4 -27 c4 -26 4 -26 6 5 0 17 -3 32
-9 32 -5 0 -11 44 -13 98 l-3 97 -2 -97 -2 -98 -50 0 -49 0 -4 98 -3 97 -2
-97 -2 -98 -50 0 -49 0 -4 98 -3 97 -2 -102z"/>
<path d="M8840 7570 l0 -100 63 2 62 2 -52 3 -53 4 0 89 0 89 53 4 52 3 -62 2
-63 2 0 -100z"/>
<path d="M9034 7570 c0 -58 1 -81 3 -52 l4 53 62 -3 62 -3 6 -50 c4 -34 6 -15
6 55 -1 58 -2 84 -4 58 l-4 -48 -64 0 -64 0 -4 48 c-2 26 -3 0 -3 -58z"/>
<path d="M9388 7663 c-7 -18 4 -193 13 -193 5 0 9 45 9 100 0 56 -4 100 -9
100 -6 0 -11 -3 -13 -7z"/>
<path d="M9480 7570 l0 -100 63 2 62 2 -57 3 -57 4 0 89 0 89 57 4 57 3 -62 2
-63 2 0 -100z"/>
<path d="M9330 7578 c-23 -35 -49 -68 -57 -75 -8 -6 -13 -17 -11 -24 2 -7 30
25 61 71 32 45 56 84 54 87 -3 2 -24 -24 -47 -59z"/>
<path d="M7201 7078 c-10 -23 -16 -45 -13 -48 2 -3 7 1 9 8 5 14 63 17 63 2 0
-5 4 -10 10 -10 12 0 -25 83 -39 88 -6 2 -20 -16 -30 -40z m43 6 c9 -23 8 -24
-14 -24 -11 0 -20 2 -20 4 0 12 13 36 20 36 4 0 11 -7 14 -16z"/>
<path d="M7299 7099 c-8 -16 -8 -28 0 -46 9 -19 17 -24 43 -21 37 4 53 26 44
61 -5 23 -12 27 -41 27 -25 0 -37 -6 -46 -21z m78 -5 c9 -24 -10 -49 -38 -49
-24 0 -36 23 -25 51 7 19 55 18 63 -2z"/>
<path d="M7546 7079 c-9 -23 -14 -44 -11 -47 3 -3 5 0 5 6 0 16 53 15 69 0 8
-7 12 -8 10 -3 -27 70 -35 85 -45 85 -6 0 -19 -19 -28 -41z m44 -6 c0 -7 -7
-13 -15 -13 -16 0 -19 9 -9 35 5 13 8 14 15 3 5 -7 9 -19 9 -25z"/>
<path d="M8422 7073 l1 -48 4 43 c4 39 6 42 33 42 27 0 29 -3 33 -42 l4 -43 1
48 2 47 -40 0 -40 0 2 -47z"/>
<path d="M7640 7065 c0 -19 5 -35 10 -35 6 0 10 7 10 17 0 15 1 15 18 0 25
-23 39 -21 18 2 -11 12 -14 21 -7 26 6 3 11 11 11 17 0 6 -9 3 -20 -7 -18 -16
-20 -16 -20 -2 0 10 -4 17 -10 17 -5 0 -10 -16 -10 -35z"/>
<path d="M7748 7093 c12 -2 22 -8 22 -13 0 -5 -10 -10 -22 -12 -33 -4 -29 -32
5 -36 27 -3 28 -1 25 30 -2 27 -7 33 -28 35 -22 1 -22 1 -2 -4z m22 -43 c0 -5
-7 -10 -15 -10 -8 0 -15 5 -15 10 0 6 7 10 15 10 8 0 15 -4 15 -10z"/>
<path d="M7820 7076 c0 -14 -4 -28 -10 -31 -5 -3 -10 -14 -10 -23 0 -12 3 -13
12 -4 16 16 50 15 67 0 11 -11 13 -9 7 12 -3 14 -6 35 -6 48 0 18 -6 22 -30
22 -25 0 -30 -4 -30 -24z m40 -11 c0 -16 -6 -25 -15 -25 -9 0 -15 9 -15 25 0
16 6 25 15 25 9 0 15 -9 15 -25z"/>
<path d="M7911 7086 c-7 -8 -10 -24 -6 -36 5 -15 14 -20 38 -19 30 2 31 2 5 6
-35 5 -37 23 -2 23 19 0 25 5 22 18 -4 22 -41 27 -57 8z m44 -6 c3 -5 -3 -10
-14 -10 -12 0 -21 5 -21 10 0 6 6 10 14 10 8 0 18 -4 21 -10z"/>
<path d="M8001 7065 c1 -33 2 -36 8 -15 7 23 8 24 18 6 10 -18 33 -15 33 5 0
6 -5 7 -10 4 -6 -4 -19 4 -30 17 l-19 23 0 -40z"/>
<path d="M8066 7092 c-3 -5 -1 -22 4 -38 8 -29 8 -29 9 9 1 36 -3 45 -13 29z"/>
<path d="M8110 7065 c0 -39 13 -45 32 -15 17 26 26 25 31 -2 2 -14 5 -7 6 16
l1 39 -25 -23 -25 -23 0 21 c0 12 -4 22 -10 22 -5 0 -10 -16 -10 -35z"/>
<path d="M8218 7093 c-5 -25 -2 -63 4 -63 4 0 8 5 8 10 0 14 27 12 33 -2 3 -7
6 4 6 25 1 33 -2 37 -24 37 -14 0 -26 -3 -27 -7z m42 -18 c0 -8 -6 -15 -14
-15 -17 0 -28 14 -19 24 12 12 33 6 33 -9z"/>
<path d="M8530 7050 c0 -27 5 -50 10 -50 6 0 9 5 8 12 -2 6 8 14 21 17 56 15
48 71 -10 71 -28 0 -29 -2 -29 -50z m58 12 c3 -16 -2 -22 -16 -22 -24 0 -35
23 -19 39 16 16 31 8 35 -17z"/>
<path d="M8630 7080 c-9 -16 -8 -25 1 -36 16 -19 58 -18 66 2 16 41 -46 73
-67 34z m54 -6 c7 -19 -1 -34 -19 -34 -18 0 -28 17 -21 35 7 20 32 19 40 -1z"/>
<path d="M8724 7086 c-11 -29 1 -51 29 -54 15 -2 27 1 27 6 0 5 -10 8 -22 8
-17 -1 -23 5 -23 19 0 14 6 20 23 19 12 0 22 3 22 8 0 14 -50 9 -56 -6z"/>
<path d="M8810 7066 c0 -33 2 -36 30 -36 27 0 30 3 27 33 -2 27 -7 33 -30 35
-25 3 -27 1 -27 -32z m40 14 c0 -5 -7 -10 -15 -10 -8 0 -15 5 -15 10 0 6 7 10
15 10 8 0 15 -4 15 -10z m5 -30 c3 -5 -3 -10 -14 -10 -12 0 -21 5 -21 10 0 6
6 10 14 10 8 0 18 -4 21 -10z"/>
<path d="M8894 7086 c-12 -30 1 -51 31 -53 18 -1 22 1 10 4 -37 9 -40 23 -6
23 26 0 32 3 27 16 -3 9 -6 18 -6 20 0 11 -51 2 -56 -10z m51 -6 c4 -6 -5 -10
-20 -10 -15 0 -24 4 -20 10 3 6 12 10 20 10 8 0 17 -4 20 -10z"/>
<path d="M8986 7078 c-11 -38 -1 -48 48 -48 23 0 48 -6 55 -12 10 -11 11 -4 5
32 -8 55 -14 64 -14 22 0 -25 -4 -32 -19 -32 -15 0 -21 8 -24 33 l-4 32 -1
-32 c-1 -21 -7 -33 -16 -33 -9 0 -16 13 -18 33 l-4 32 -8 -27z"/>
<path d="M9120 7085 c-19 -23 -1 -50 34 -51 26 -1 26 -1 1 3 -33 6 -32 23 1
23 19 0 25 5 22 18 -4 23 -41 27 -58 7z m45 -5 c3 -5 -3 -10 -14 -10 -12 0
-21 5 -21 10 0 6 6 10 14 10 8 0 18 -4 21 -10z"/>
<path d="M9212 7065 c0 -22 2 -32 5 -22 5 21 43 23 43 2 0 -8 5 -15 10 -15 6
0 10 16 10 35 0 19 -4 35 -10 35 -5 0 -10 -7 -10 -15 0 -21 -38 -19 -43 3 -3
9 -5 -1 -5 -23z"/>
<path d="M9310 7067 c0 -20 4 -37 10 -37 5 0 7 14 3 33 -8 45 -13 47 -13 4z"/>
<path d="M9347 7082 c-21 -23 -22 -39 -2 -22 13 10 15 9 15 -9 0 -11 5 -21 10
-21 6 0 10 16 10 35 0 39 -9 44 -33 17z"/>
<path d="M9411 7086 c-21 -25 -9 -51 24 -53 18 -1 22 1 10 4 -37 9 -40 23 -6
23 26 0 32 4 29 18 -4 22 -41 27 -57 8z m44 -6 c3 -5 -3 -10 -14 -10 -12 0
-21 5 -21 10 0 6 6 10 14 10 8 0 18 -4 21 -10z"/>
<path d="M7463 7074 c-3 -8 -2 -19 3 -24 5 -5 9 1 9 16 0 28 -3 30 -12 8z"/>
<path d="M7493 7079 c-13 -13 -6 -39 9 -39 7 0 6 5 -1 13 -8 10 -7 17 1 25 7
7 10 12 7 12 -3 0 -10 -5 -16 -11z"/>
<path d="M8343 7074 c-3 -8 -1 -20 4 -25 7 -7 11 -2 11 15 0 29 -6 33 -15 10z"/>
<path d="M8371 7076 c-8 -10 -8 -16 1 -24 10 -8 13 -4 13 14 0 28 1 28 -14 10z"/>
<path d="M9498 7078 c8 -8 9 -15 1 -25 -8 -9 -8 -13 -1 -13 13 0 21 21 14 38
-2 6 -9 12 -15 12 -8 0 -7 -4 1 -12z"/>
<path d="M9525 7066 c0 -18 3 -22 13 -14 9 8 9 14 1 24 -15 18 -14 18 -14 -10z"/>
<path d="M8890 5314 c-19 -49 -6 -144 20 -144 7 0 7 7 -1 22 -7 13 -9 46 -6
85 5 68 2 77 -13 37z"/>
<path d="M9060 5315 c13 -33 13 -86 0 -119 -6 -16 -6 -26 0 -26 31 0 33 157 2
168 -9 3 -10 -3 -2 -23z"/>
<path d="M7200 5254 c21 -47 19 -64 -6 -64 -8 0 -14 -5 -14 -11 0 -6 10 -9 22
-7 15 2 29 20 49 66 16 34 24 62 20 62 -5 0 -14 -13 -21 -30 -7 -16 -16 -30
-20 -30 -4 0 -13 14 -20 30 -7 17 -16 30 -21 30 -4 0 1 -21 11 -46z"/>
<path d="M7301 5278 c-14 -38 2 -63 43 -66 20 -2 36 1 36 7 0 5 -12 9 -26 8
-34 -3 -53 25 -34 48 9 11 22 14 38 10 15 -4 21 -2 17 5 -3 5 -20 10 -36 10
-22 0 -32 -6 -38 -22z"/>
<path d="M7410 5255 c0 -25 5 -45 10 -45 6 0 10 18 10 41 0 38 1 40 28 37 25
-3 27 -6 24 -40 -2 -23 1 -38 7 -38 6 0 11 20 11 45 l0 45 -45 0 -45 0 0 -45z"/>
<path d="M7539 5279 c-19 -36 3 -69 46 -69 19 0 35 5 35 10 0 6 -10 8 -23 5
-15 -4 -28 -1 -36 9 -12 14 -8 16 28 16 27 0 41 4 41 13 0 39 -71 52 -91 16z
m69 -6 c2 -9 -7 -13 -27 -13 -30 0 -39 9 -24 24 11 10 46 3 51 -11z"/>
<path d="M7660 5255 l0 -45 70 0 70 0 0 45 c0 25 -4 45 -10 45 -5 0 -10 -18
-10 -40 0 -33 -3 -40 -20 -40 -17 0 -20 7 -20 40 0 22 -4 40 -10 40 -5 0 -10
-18 -10 -40 0 -33 -3 -40 -20 -40 -17 0 -20 7 -20 40 0 22 -4 40 -10 40 -5 0
-10 -20 -10 -45z"/>
<path d="M7840 5255 c0 -25 5 -45 10 -45 6 0 10 9 10 20 0 15 7 20 25 20 18 0
25 -5 25 -20 0 -11 5 -20 10 -20 6 0 10 20 10 45 0 25 -4 45 -10 45 -5 0 -10
-9 -10 -20 0 -15 -7 -20 -25 -20 -18 0 -25 5 -25 20 0 11 -4 20 -10 20 -5 0
-10 -20 -10 -45z"/>
<path d="M7970 5279 c-20 -36 2 -69 45 -69 29 0 36 4 41 27 9 35 -7 57 -44 61
-23 2 -34 -2 -42 -19z m69 -8 c13 -24 -9 -57 -33 -48 -23 9 -31 34 -16 52 17
20 37 19 49 -4z"/>
<path d="M8152 5288 c-7 -7 -12 -21 -12 -33 0 -28 19 -45 50 -45 31 0 50 17
50 45 0 28 -19 45 -50 45 -14 0 -31 -5 -38 -12z m63 -33 c0 -25 -4 -30 -25
-30 -16 0 -26 6 -28 18 -6 30 6 49 30 45 18 -2 23 -9 23 -33z"/>
<path d="M8269 5279 c-19 -36 3 -69 46 -69 19 0 35 4 35 9 0 6 -12 9 -26 8
-34 -3 -53 25 -34 48 9 11 22 14 38 10 15 -4 21 -2 17 5 -12 19 -64 11 -76
-11z"/>
<path d="M8380 5256 l0 -46 40 0 c46 0 54 11 42 55 -7 26 -14 30 -45 33 l-37
3 0 -45z m65 19 c0 -5 -10 -11 -22 -13 -16 -2 -23 2 -23 13 0 11 7 15 23 13
12 -2 22 -7 22 -13z m5 -40 c0 -9 -9 -15 -25 -15 -16 0 -25 6 -25 15 0 9 9 15
25 15 16 0 25 -6 25 -15z"/>
<path d="M8502 5288 c-7 -7 -12 -21 -12 -33 0 -28 19 -45 50 -45 31 0 50 17
50 45 0 28 -19 45 -50 45 -14 0 -31 -5 -38 -12z m67 -15 c12 -23 -4 -53 -29
-53 -23 0 -36 36 -20 55 17 20 37 19 49 -2z"/>
<path d="M8620 5255 c0 -54 13 -57 51 -12 l28 32 1 -32 c0 -18 5 -33 10 -33 6
0 10 20 10 45 0 25 -4 45 -9 45 -6 0 -24 -15 -40 -32 l-31 -33 0 33 c0 17 -4
32 -10 32 -5 0 -10 -20 -10 -45z"/>
<path d="M8760 5267 c0 -18 -5 -38 -12 -45 -9 -9 -8 -12 4 -12 18 0 28 20 28
56 0 17 6 24 20 24 17 0 20 -7 20 -40 0 -22 5 -40 10 -40 6 0 10 20 10 45 l0
45 -40 0 c-39 0 -40 -1 -40 -33z"/>
<path d="M8950 5292 c0 -5 11 -7 25 -4 18 3 25 0 25 -11 0 -10 -11 -17 -27
-19 -20 -2 -28 -9 -28 -23 0 -16 8 -21 38 -23 l38 -3 -3 43 c-3 40 -5 43 -35
46 -18 2 -33 -1 -33 -6z m50 -57 c0 -16 -35 -21 -44 -6 -8 12 4 21 26 21 10 0
18 -7 18 -15z"/>
<path d="M9187 5268 c-3 -18 -8 -46 -12 -63 -5 -24 -4 -27 5 -12 7 10 23 17
42 17 17 0 37 -8 45 -17 13 -16 14 -15 9 16 -3 18 -6 46 -6 62 0 27 -3 29 -39
29 -36 0 -39 -2 -44 -32z m63 -13 c0 -31 -3 -35 -26 -35 -22 0 -25 3 -20 23 3
12 6 28 6 35 0 6 9 12 20 12 16 0 20 -7 20 -35z"/>
<path d="M9309 5279 c-17 -33 3 -69 39 -69 33 0 52 16 52 45 0 29 -19 45 -52
45 -18 0 -31 -7 -39 -21z m66 -24 c0 -25 -4 -30 -25 -30 -19 0 -26 6 -28 24
-4 25 13 43 38 38 9 -1 15 -13 15 -32z"/>
<path d="M9430 5255 c0 -25 5 -45 10 -45 6 0 10 18 10 41 0 38 1 40 28 37 23
-3 28 -9 33 -43 l6 -40 2 48 1 47 -45 0 -45 0 0 -45z"/>
<path d="M9559 5279 c-8 -16 -8 -28 0 -46 9 -20 17 -24 49 -21 34 3 37 6 40
37 4 38 -9 51 -50 51 -18 0 -31 -8 -39 -21z m75 -11 c8 -14 7 -21 -6 -34 -30
-30 -75 9 -48 42 16 18 39 15 54 -8z"/>
<path d="M9690 5267 c0 -18 -5 -38 -12 -45 -9 -9 -8 -12 5 -12 12 0 19 12 23
40 5 30 11 40 25 40 15 0 19 -8 19 -40 0 -22 5 -40 10 -40 6 0 10 20 10 45 l0
45 -40 0 c-39 0 -40 -1 -40 -33z"/>
<path d="M9811 5255 c0 -40 2 -45 9 -27 12 29 60 31 60 2 0 -11 5 -20 10 -20
6 0 10 20 10 45 0 25 -4 45 -10 45 -5 0 -10 -9 -10 -20 0 -29 -48 -27 -60 3
-7 17 -9 12 -9 -28z"/>
<path d="M9940 5256 c0 -25 4 -46 9 -46 5 0 21 15 35 33 l26 32 0 -32 c0 -18
5 -33 10 -33 6 0 10 20 10 45 0 25 -4 45 -9 45 -5 0 -21 -13 -34 -30 -31 -36
-37 -37 -31 -6 2 14 0 28 -6 31 -6 4 -10 -11 -10 -39z"/>
<path d="M10068 5293 c18 -4 22 -11 22 -44 0 -21 5 -39 10 -39 6 0 10 18 10
39 0 29 5 41 18 44 9 3 -5 5 -33 4 -27 0 -40 -2 -27 -4z"/>
<path d="M10159 5279 c-19 -36 3 -69 46 -69 19 0 35 4 35 9 0 4 -10 6 -23 4
-14 -3 -29 2 -36 11 -12 14 -9 16 28 16 27 0 41 4 41 13 0 39 -71 52 -91 16z
m69 -6 c2 -9 -7 -13 -28 -13 -28 0 -31 2 -20 15 15 18 41 16 48 -2z"/>
<path d="M10290 5274 c0 -14 -5 -35 -11 -46 -9 -16 -8 -19 3 -16 7 3 15 20 18
39 4 26 10 35 28 37 20 3 22 -1 22 -37 0 -23 5 -41 10 -41 6 0 10 20 10 45 l0
45 -40 0 c-36 0 -40 -2 -40 -26z"/>
<path d="M10410 5300 c-1 -3 -3 -24 -5 -47 l-4 -43 40 0 c26 0 42 5 45 15 8
21 -14 45 -41 45 -14 0 -25 7 -28 18 -3 9 -6 15 -7 12z m55 -60 c0 -8 -10 -16
-22 -18 -18 -3 -23 2 -23 18 0 16 5 21 23 18 12 -2 22 -10 22 -18z"/>
<path d="M10523 5255 c0 -27 2 -40 4 -27 6 30 63 33 63 2 0 -11 5 -20 10 -20
6 0 10 20 10 45 0 25 -4 45 -10 45 -5 0 -10 -9 -10 -20 0 -31 -57 -28 -63 3
-2 12 -4 0 -4 -28z"/>
<path d="M10651 5254 c22 -49 19 -77 -6 -68 -8 3 -15 1 -15 -5 0 -6 9 -11 20
-11 13 0 27 14 40 40 30 59 41 90 31 90 -5 0 -16 -17 -24 -37 l-15 -38 -15 38
c-9 20 -20 37 -26 37 -5 0 -1 -21 10 -46z"/>
<path d="M10755 5261 c0 -22 4 -43 8 -47 4 -4 7 2 7 14 0 27 16 28 30 2 7 -13
21 -20 38 -20 33 0 52 16 52 45 0 47 -65 63 -93 23 l-16 -23 -7 23 c-10 34
-19 26 -19 -17z m110 -6 c0 -23 -5 -30 -19 -30 -28 0 -43 29 -26 50 21 25 45
14 45 -20z"/>
<path d="M7335 5085 c-42 -41 -27 -105 23 -105 34 0 52 16 52 47 0 27 -33 47
-63 37 -19 -6 -20 -5 -8 10 7 9 21 16 30 16 9 0 23 5 31 10 12 8 9 10 -13 10
-16 0 -38 -10 -52 -25z m53 -47 c14 -14 -2 -48 -22 -48 -20 0 -39 27 -32 45 6
18 37 20 54 3z"/>
<path d="M7886 5089 c-44 -35 -30 -109 22 -109 34 0 52 16 52 47 0 27 -33 47
-63 37 -19 -6 -20 -5 -8 10 7 9 21 16 30 16 9 0 23 5 31 10 12 8 9 10 -11 10
-15 0 -38 -9 -53 -21z m52 -67 c4 -28 -24 -40 -45 -19 -21 21 -9 49 19 45 15
-2 24 -11 26 -26z"/>
<path d="M7218 5072 c-22 -4 -35 -49 -21 -71 6 -9 24 -17 41 -19 26 -3 34 2
43 21 19 43 -15 80 -63 69z m46 -34 c8 -14 7 -21 -6 -34 -30 -30 -75 9 -48 42
16 18 39 15 54 -8z"/>
<path d="M7510 5040 c-4 -37 -9 -46 -27 -48 -21 -3 -23 1 -23 37 0 23 -4 41
-10 41 -5 0 -10 -20 -10 -45 l0 -45 69 0 c46 0 71 -4 74 -12 2 -7 8 -9 13 -5
4 4 3 17 -4 27 -7 11 -12 33 -12 50 0 16 -4 30 -9 30 -5 0 -9 -12 -9 -27 1
-47 -1 -53 -21 -53 -17 0 -20 8 -23 48 l-4 47 -4 -45z"/>
<path d="M7630 5060 c-24 -24 -25 -43 -4 -64 17 -18 74 -22 74 -6 0 6 -10 8
-23 5 -15 -4 -28 -1 -36 9 -12 14 -8 16 28 16 47 0 55 19 19 44 -29 20 -34 20
-58 -4z m58 -17 c2 -9 -7 -13 -27 -13 -23 0 -29 4 -24 16 6 17 44 15 51 -3z"/>
<path d="M7763 5069 c-30 -11 -39 -46 -17 -70 24 -26 60 -24 79 5 28 43 -11
84 -62 65z m51 -31 c8 -14 7 -21 -6 -34 -30 -30 -75 9 -48 42 16 18 39 15 54
-8z"/>
<path d="M8018 5072 c-27 -3 -28 -5 -28 -68 0 -36 4 -64 10 -64 6 0 10 10 10
23 0 18 5 22 31 22 37 0 54 22 46 57 -7 27 -26 35 -69 30z m51 -31 c15 -27
-11 -60 -36 -45 -23 14 -29 44 -11 55 21 14 37 10 47 -10z"/>
<path d="M8138 5073 c-28 -7 -21 -22 8 -20 15 1 29 -4 31 -10 3 -9 -6 -13 -26
-13 -26 0 -31 -4 -31 -25 0 -22 4 -25 40 -25 40 0 40 0 40 40 0 29 -5 42 -19
50 -11 5 -21 9 -23 9 -2 -1 -11 -3 -20 -6z m42 -62 c0 -6 -5 -13 -10 -16 -15
-9 -43 3 -35 15 8 13 45 13 45 1z"/>
<path d="M8240 5070 c-12 -8 -10 -10 11 -10 36 0 44 -12 17 -27 l-23 -12 23
-1 c15 0 22 -5 19 -12 -2 -7 -16 -13 -30 -13 -15 1 -27 -3 -27 -8 0 -4 17 -7
38 -5 35 3 37 5 38 41 1 48 -30 70 -66 47z"/>
<path d="M8350 5060 c-23 -23 -24 -33 -10 -61 12 -22 59 -26 78 -7 19 19 14
55 -10 72 -29 20 -34 20 -58 -4z m59 -19 c13 -24 -9 -57 -33 -48 -23 9 -31 34
-16 52 17 20 37 19 49 -4z"/>
<path d="M8465 5072 c-3 -3 -5 -25 -5 -49 l0 -44 43 3 42 3 -3 40 c-2 22 -5
41 -6 42 -6 6 -66 10 -71 5z m60 -27 c0 -5 -10 -11 -22 -13 -16 -2 -23 2 -23
13 0 11 7 15 23 13 12 -2 22 -7 22 -13z m5 -40 c0 -9 -9 -15 -25 -15 -16 0
-25 6 -25 15 0 9 9 15 25 15 16 0 25 -6 25 -15z"/>
<path d="M8598 5073 c-27 -7 -21 -19 9 -18 14 0 28 -6 30 -12 3 -9 -6 -13 -26
-13 -26 0 -31 -4 -31 -25 0 -22 4 -25 40 -25 40 0 40 0 40 40 0 29 -5 42 -19
50 -11 5 -21 9 -23 9 -2 -1 -11 -3 -20 -6z m42 -62 c0 -6 -5 -13 -10 -16 -15
-9 -43 3 -35 15 8 13 45 13 45 1z"/>
<path d="M8688 5069 c-5 -3 0 -9 11 -12 16 -4 20 -11 16 -36 -2 -17 1 -33 6
-36 5 -4 9 12 9 34 0 35 3 41 22 41 12 0 18 3 14 8 -9 9 -64 9 -78 1z"/>
<path d="M8802 5064 c-24 -17 -29 -53 -10 -72 15 -15 65 -16 74 0 5 8 2 9 -11
4 -21 -8 -55 1 -55 15 0 5 16 9 35 9 28 0 35 4 35 20 0 10 -9 24 -19 30 -25
13 -22 13 -49 -6z m42 -10 c26 -10 18 -24 -14 -24 -29 0 -38 9 -23 23 8 9 17
9 37 1z"/>
<path d="M8919 5059 c-5 -10 -9 -26 -9 -36 0 -11 -5 -24 -12 -31 -9 -9 -8 -12
4 -12 18 0 28 20 28 56 0 17 6 24 20 24 17 0 20 -7 20 -40 0 -22 5 -40 10 -40
6 0 10 22 10 48 0 47 -1 48 -31 48 -19 0 -34 -6 -40 -17z"/>
<path d="M9140 5031 c0 -28 5 -51 10 -51 6 0 10 9 10 20 0 15 7 20 25 20 18 0
25 -5 25 -20 0 -11 5 -20 10 -20 6 0 10 20 10 45 0 25 -4 45 -10 45 -5 0 -10
-9 -10 -20 0 -15 -7 -20 -25 -20 -18 0 -25 5 -25 19 0 11 -4 23 -10 26 -6 4
-10 -13 -10 -44z"/>
<path d="M9260 5074 c0 -7 9 -31 19 -55 14 -31 17 -47 9 -56 -6 -7 -14 -10
-19 -7 -5 3 -9 0 -9 -5 0 -13 20 -14 36 -3 12 8 54 105 54 124 -1 7 -11 -7
-24 -31 -22 -41 -23 -43 -29 -20 -7 28 -36 70 -37 53z"/>
<path d="M9430 5053 c-29 -24 -30 -24 -30 -4 0 12 -4 21 -10 21 -5 0 -10 -20
-10 -45 0 -25 5 -45 10 -45 6 0 10 9 10 20 0 11 3 20 8 20 4 0 13 -9 20 -20
18 -29 69 -27 83 4 8 17 8 29 0 43 -17 32 -48 34 -81 6z m60 -8 c15 -18 7 -43
-16 -52 -24 -9 -46 24 -33 48 12 23 32 24 49 4z"/>
<path d="M9613 5073 c-15 -6 -18 -93 -3 -93 6 0 10 18 10 41 0 38 1 40 28 37
24 -3 27 -7 25 -35 -2 -17 2 -35 7 -38 6 -4 10 13 10 43 0 48 0 49 -32 49 -18
1 -39 -1 -45 -4z"/>
<path d="M9758 5072 c-27 -3 -28 -5 -28 -68 0 -36 4 -64 10 -64 6 0 10 10 10
23 0 20 4 23 28 19 33 -4 55 17 50 49 -4 28 -35 46 -70 41z m50 -45 c4 -31
-20 -46 -43 -27 -18 15 -20 46 -2 53 25 11 42 1 45 -26z"/>
<path d="M9882 5069 c-17 -6 -22 -16 -22 -43 0 -35 12 -46 54 -46 45 0 53 81
9 92 -10 3 -29 1 -41 -3z m52 -31 c8 -14 7 -21 -6 -34 -30 -30 -75 9 -48 42
16 18 39 15 54 -8z"/>
<path d="M9992 5027 c1 -51 2 -51 5 -9 4 40 6 42 35 42 39 0 28 13 -12 16 -30
2 -30 2 -28 -49z"/>
<path d="M10080 5012 c0 -41 4 -72 10 -72 6 0 10 11 10 24 0 19 4 22 25 18 31
-6 55 13 55 44 0 29 -37 56 -60 44 -11 -6 -21 -5 -28 2 -9 9 -12 -6 -12 -60z
m78 15 c4 -31 -20 -46 -43 -27 -18 15 -20 46 -2 53 25 11 42 1 45 -26z"/>
<path d="M10228 5073 c-28 -7 -21 -22 8 -20 15 1 29 -4 31 -10 3 -9 -6 -13
-25 -13 -16 0 -32 -6 -34 -12 -10 -26 4 -38 43 -38 38 0 39 1 39 34 0 19 -7
42 -16 50 -16 17 -17 17 -46 9z m42 -62 c0 -6 -5 -13 -10 -16 -15 -9 -43 3
-35 15 8 13 45 13 45 1z"/>
<path d="M10332 5028 c1 -39 2 -44 5 -19 l5 34 22 -28 23 -29 16 30 16 29 1
-32 c0 -18 5 -33 10 -33 11 0 14 83 3 94 -4 4 -17 -10 -29 -30 l-22 -36 -16
30 c-26 51 -36 48 -34 -10z"/>
<path d="M10482 5030 c0 -46 2 -50 7 -20 l6 34 19 -28 19 -29 18 24 19 24 0
-27 c0 -16 5 -28 10 -28 6 0 10 20 10 45 0 53 -13 57 -40 13 -11 -18 -20 -28
-20 -23 0 6 -11 24 -25 40 l-24 30 1 -55z"/>
<path d="M10620 5068 c0 -7 9 -32 19 -54 20 -45 13 -67 -18 -57 -13 5 -13 3
-4 -7 20 -21 43 -3 68 55 31 70 32 95 1 36 l-23 -44 -16 42 c-17 41 -27 52
-27 29z"/>
<path d="M10736 5071 c-4 -5 -2 -12 3 -15 5 -4 12 -2 15 3 4 5 2 12 -3 15 -5
4 -12 2 -15 -3z"/>
<path d="M9030 5024 l0 -45 38 3 c32 3 37 6 37 28 0 20 -6 26 -27 28 -16 2
-28 9 -28 18 0 8 -4 14 -10 14 -5 0 -10 -21 -10 -46z m58 -17 c2 -12 -3 -17
-17 -17 -15 0 -21 6 -21 21 0 25 33 22 38 -4z"/>
<path d="M10730 4990 c0 -5 7 -10 16 -10 8 0 12 5 9 10 -3 6 -10 10 -16 10 -5
0 -9 -4 -9 -10z"/>
<path d="M11500 4575 c0 -69 3 -85 15 -85 10 0 15 10 15 34 0 38 23 68 45 60
10 -4 15 -21 15 -50 0 -38 3 -44 21 -44 20 0 21 4 16 50 -8 67 -13 73 -58 68
-37 -3 -39 -2 -39 24 0 18 -5 28 -15 28 -12 0 -15 -16 -15 -85z"/>
<path d="M7190 4570 c0 -73 2 -80 20 -80 18 0 20 7 20 65 l0 65 35 0 35 0 0
-65 c0 -58 2 -65 20 -65 18 0 20 7 20 80 l0 80 -75 0 -75 0 0 -80z"/>
<path d="M11080 4570 c0 -73 2 -80 20 -80 15 0 20 7 20 25 0 22 4 25 34 25 40
0 66 22 66 55 0 34 -36 55 -92 55 l-48 0 0 -80z m104 34 c9 -22 -11 -44 -40
-44 -20 0 -24 5 -24 30 0 26 3 30 29 30 17 0 31 -6 35 -16z"/>
<path d="M11400 4626 c0 -8 -6 -17 -12 -20 -10 -5 -10 -7 0 -12 6 -3 12 -19
12 -35 0 -17 5 -39 10 -50 13 -23 60 -26 60 -4 0 8 -6 14 -12 13 -8 -2 -14 11
-16 35 -2 28 0 37 12 37 9 0 16 5 16 10 0 6 -7 10 -15 10 -8 0 -15 7 -15 15 0
8 -9 15 -20 15 -11 0 -20 -6 -20 -14z"/>
<path d="M7380 4529 c0 -64 3 -79 15 -79 9 0 15 9 15 25 0 22 3 24 29 19 55
-11 94 62 53 99 -12 11 -34 16 -65 15 l-47 -1 0 -78z m90 42 c15 -30 2 -53
-29 -49 -29 3 -40 31 -21 53 17 21 37 19 50 -4z"/>
<path d="M7545 4586 c-30 -45 1 -96 58 -96 50 0 81 78 41 107 -30 22 -81 16
-99 -11z m75 -11 c19 -23 8 -50 -20 -50 -19 0 -26 6 -28 24 -5 35 26 53 48 26z"/>
<path d="M7700 4550 c0 -46 3 -60 14 -60 11 0 16 14 18 48 3 45 4 47 36 50 51
5 37 22 -18 22 l-50 0 0 -60z"/>
<path d="M7820 4529 c0 -64 3 -79 15 -79 9 0 15 9 15 25 0 22 3 24 29 19 55
-11 94 62 53 99 -12 11 -34 16 -65 15 l-47 -1 0 -78z m90 42 c15 -30 2 -53
-29 -49 -29 3 -40 31 -21 53 17 21 37 19 50 -4z"/>
<path d="M7985 4601 c-8 -13 10 -22 29 -15 9 3 24 0 33 -7 14 -12 12 -15 -23
-19 -34 -4 -39 -9 -42 -32 -3 -29 7 -34 76 -36 32 -1 32 -1 32 46 0 27 -5 53
-12 60 -14 14 -84 16 -93 3z m73 -73 c-7 -20 -48 -23 -48 -4 0 11 9 16 26 16
16 0 24 -5 22 -12z"/>
<path d="M8130 4550 c0 -45 3 -60 14 -60 9 0 16 13 18 33 l4 32 13 -27 c18
-36 22 -35 46 5 l20 32 3 -37 c2 -25 8 -38 18 -38 11 0 14 14 14 60 0 53 -2
60 -20 60 -12 0 -26 -12 -35 -30 -19 -37 -26 -37 -47 0 -29 51 -48 39 -48 -30z"/>
<path d="M8320 4550 c0 -47 3 -60 15 -60 11 0 15 11 15 38 l0 37 21 -35 c23
-36 21 -37 56 17 10 16 12 13 12 -19 1 -27 5 -38 16 -38 12 0 15 13 15 60 0
51 -3 60 -17 60 -10 0 -28 -17 -39 -38 l-22 -37 -18 38 c-11 22 -25 37 -36 37
-15 0 -18 -9 -18 -60z"/>
<path d="M8510 4550 c0 -72 14 -78 59 -23 l31 38 0 -38 c0 -26 4 -37 15 -37
12 0 15 13 15 60 0 72 -14 78 -59 23 l-30 -38 -1 38 c0 26 -4 37 -15 37 -12 0
-15 -13 -15 -60z"/>
<path d="M8680 4529 c0 -64 3 -79 15 -79 9 0 15 9 15 23 0 20 4 23 28 20 38
-6 65 17 65 55 0 47 -18 62 -74 60 l-49 -1 0 -78z m78 52 c8 -4 12 -19 10 -32
-2 -18 -9 -24 -28 -24 -19 0 -26 6 -28 24 -3 20 11 41 28 41 3 0 11 -4 18 -9z"/>
<path d="M8845 4586 c-30 -45 1 -96 58 -96 50 0 81 78 41 107 -30 22 -81 16
-99 -11z m73 -5 c8 -4 12 -19 10 -32 -2 -18 -9 -24 -28 -24 -19 0 -26 6 -28
24 -3 20 11 41 28 41 3 0 11 -4 18 -9z"/>
<path d="M9000 4551 l0 -61 38 0 c49 0 78 20 67 46 -4 10 -8 30 -9 44 -1 23
-6 25 -48 28 l-48 3 0 -60z m70 24 c0 -8 -9 -15 -20 -15 -11 0 -20 7 -20 15 0
8 9 15 20 15 11 0 20 -7 20 -15z m8 -47 c-7 -20 -48 -23 -48 -4 0 11 9 16 26
16 16 0 24 -5 22 -12z"/>
<path d="M9145 4600 c-6 -10 -5 -11 34 -13 36 -3 39 -27 3 -27 -37 0 -60 -25
-45 -48 7 -12 26 -17 63 -18 l52 -2 -4 50 c-3 28 -12 54 -19 59 -19 12 -76 11
-84 -1z m65 -69 c0 -6 -5 -13 -10 -16 -15 -9 -43 3 -35 15 8 13 45 13 45 1z"/>
<path d="M9290 4550 c0 -47 3 -60 15 -60 9 0 15 10 15 26 0 22 4 25 28 22 19
-2 28 -9 30 -25 2 -13 10 -23 18 -23 11 0 14 15 14 60 0 45 -3 60 -14 60 -8 0
-16 -10 -18 -22 -2 -17 -11 -24 -30 -26 -24 -3 -28 0 -28 22 0 16 -6 26 -15
26 -12 0 -15 -13 -15 -60z"/>
<path d="M9450 4550 c0 -72 14 -78 59 -23 l31 38 0 -38 c0 -26 4 -37 15 -37
12 0 15 13 15 60 0 72 -14 78 -59 23 l-30 -38 -1 38 c0 26 -4 37 -15 37 -12 0
-15 -13 -15 -60z"/>
<path d="M9625 4594 c-42 -42 8 -115 68 -100 34 8 36 30 2 24 -14 -3 -33 1
-42 8 -16 12 -12 13 30 14 40 0 47 3 47 19 0 46 -71 69 -105 35z m73 -21 c2
-9 -7 -13 -27 -13 -30 0 -39 9 -24 24 11 10 46 3 51 -11z"/>
<path d="M9840 4550 c0 -53 2 -60 20 -60 15 0 20 7 20 25 0 20 5 25 25 25 20
0 25 -5 25 -25 0 -16 6 -25 15 -25 12 0 15 13 15 60 0 47 -3 60 -15 60 -9 0
-15 -9 -15 -25 0 -20 -5 -25 -25 -25 -20 0 -25 5 -25 25 0 18 -5 25 -20 25
-18 0 -20 -7 -20 -60z"/>
<path d="M10005 4601 c-8 -13 10 -22 29 -15 9 3 24 0 33 -7 14 -12 12 -15 -23
-19 -34 -4 -39 -9 -42 -32 -3 -29 7 -34 76 -36 32 -1 32 -1 32 46 0 27 -5 53
-12 60 -14 14 -84 16 -93 3z m73 -73 c-7 -20 -48 -23 -48 -4 0 11 9 16 26 16
16 0 24 -5 22 -12z"/>
<path d="M10234 4602 c-19 -13 -23 -39 -8 -60 9 -13 11 -23 4 -27 -15 -9 -12
-25 5 -25 8 0 19 9 25 20 6 11 17 20 25 20 8 0 15 -9 15 -20 0 -11 7 -20 15
-20 12 0 15 13 15 60 l0 60 -42 0 c-24 0 -48 -4 -54 -8z m66 -32 c0 -15 -7
-20 -25 -20 -24 0 -34 18 -18 33 15 15 43 7 43 -13z"/>
<path d="M10370 4597 c0 -9 9 -12 29 -9 34 5 53 -17 22 -25 -27 -7 -27 -23 0
-23 32 0 16 -25 -17 -26 -46 -2 -50 -4 -34 -14 44 -29 116 2 93 40 -8 12 -9
20 -1 28 8 8 8 15 -2 27 -16 19 -90 21 -90 2z"/>
<path d="M10510 4550 l0 -60 39 0 c34 0 71 19 71 36 0 23 -25 44 -50 44 -23 0
-30 4 -30 20 0 11 -7 20 -15 20 -12 0 -15 -13 -15 -60z m68 -17 c-5 -26 -38
-29 -38 -4 0 15 6 21 21 21 14 0 19 -5 17 -17z"/>
<path d="M10630 4550 c0 -53 2 -60 20 -60 18 0 20 7 20 60 0 53 -2 60 -20 60
-18 0 -20 -7 -20 -60z"/>
<path d="M10710 4550 c0 -47 3 -60 15 -60 9 0 15 9 15 25 0 14 4 25 10 25 5 0
17 -11 26 -25 9 -14 25 -25 36 -25 19 0 19 1 -1 29 -25 35 -26 45 -6 61 19 16
19 30 1 30 -7 0 -21 -11 -30 -25 -9 -14 -21 -25 -26 -25 -6 0 -10 11 -10 25 0
16 -6 25 -15 25 -12 0 -15 -13 -15 -60z"/>
<path d="M10867 4592 c-38 -42 -3 -106 55 -100 17 2 34 9 36 17 3 10 -2 13
-22 9 -14 -3 -34 1 -43 8 -16 12 -12 13 29 14 54 0 61 7 45 41 -16 32 -75 39
-100 11z m71 -19 c2 -9 -7 -13 -28 -13 -28 0 -31 2 -20 15 15 18 41 16 48 -2z"/>
<path d="M11256 4573 c39 -93 40 -103 3 -103 -10 0 -19 -4 -19 -10 0 -14 56
-12 67 3 9 12 63 134 63 143 0 2 -6 4 -14 4 -8 0 -22 -19 -31 -42 l-17 -43
-19 43 c-10 23 -25 42 -34 42 -14 0 -14 -4 1 -37z"/>
<path d="M11675 4594 c-25 -25 -16 -75 17 -93 59 -33 121 28 84 83 -20 31 -75
36 -101 10z m75 -23 c15 -30 2 -53 -29 -49 -29 3 -40 31 -21 53 17 21 37 19
50 -4z"/>
<path d="M11820 4549 c0 -46 3 -59 15 -59 11 0 15 11 15 39 0 22 6 44 15 51
23 19 45 -5 45 -51 0 -28 4 -39 15 -39 20 0 21 92 2 108 -7 6 -34 11 -60 10
l-47 -1 0 -58z"/>
<path d="M11975 4520 c-8 -14 3 -30 21 -30 8 0 14 9 14 20 0 21 -24 28 -35 10z"/>
<path d="M8172 4338 c6 -17 47 -23 61 -9 15 15 0 26 -17 12 -10 -8 -16 -9 -21
-1 -9 14 -28 13 -23 -2z"/>
<path d="M7190 4260 l0 -80 48 0 c53 0 92 21 92 50 0 24 -37 50 -72 50 -18 0
-28 5 -28 15 0 11 12 15 45 15 33 0 45 4 45 15 0 12 -14 15 -65 15 l-65 0 0
-80z m105 -30 c0 -10 -12 -16 -32 -18 -28 -3 -33 0 -33 18 0 18 5 21 33 18 20
-2 32 -8 32 -18z"/>
<path d="M7365 4290 c-6 -10 -5 -11 34 -13 36 -3 39 -27 3 -27 -37 0 -60 -25
-45 -48 7 -12 26 -17 63 -18 l52 -2 -4 50 c-3 28 -12 54 -19 59 -19 12 -76 11
-84 -1z m65 -69 c0 -6 -5 -13 -10 -16 -15 -9 -43 3 -35 15 8 13 45 13 45 1z"/>
<path d="M7500 4291 c0 -6 13 -11 29 -11 36 0 51 -19 22 -27 -27 -7 -27 -23 0
-23 12 0 19 -5 16 -12 -2 -8 -18 -12 -36 -10 -23 2 -32 -2 -29 -10 7 -20 73
-22 92 -3 9 9 13 21 10 27 -4 6 -7 25 -8 42 -1 30 -3 31 -48 34 -29 2 -48 -1
-48 -7z"/>
<path d="M7647 4282 c-23 -25 -21 -58 3 -82 24 -24 57 -26 88 -4 27 19 29 64
4 87 -25 22 -75 21 -95 -1z m76 -23 c15 -24 1 -49 -27 -49 -29 0 -44 33 -25
56 15 18 38 15 52 -7z"/>
<path d="M7790 4241 l0 -61 44 0 c46 0 82 22 70 42 -4 6 -7 25 -8 42 -1 30 -2
31 -53 34 l-53 3 0 -60z m80 24 c0 -9 -9 -15 -25 -15 -16 0 -25 6 -25 15 0 9
9 15 25 15 16 0 25 -6 25 -15z m1 -50 c0 -5 -12 -11 -26 -13 -18 -2 -25 1 -25
13 0 12 7 15 25 13 14 -2 26 -7 26 -13z"/>
<path d="M7940 4240 l0 -60 38 0 c49 0 75 19 70 51 -2 19 -10 25 -35 27 -25 2
-33 8 -33 23 0 12 -7 19 -20 19 -18 0 -20 -7 -20 -60z m78 -17 c-5 -26 -38
-29 -38 -4 0 15 6 21 21 21 14 0 19 -5 17 -17z"/>
<path d="M8070 4240 c0 -47 3 -60 15 -60 12 0 15 13 15 60 0 47 -3 60 -15 60
-12 0 -15 -13 -15 -60z"/>
<path d="M8140 4240 c0 -73 13 -77 65 -22 l34 37 1 -37 c0 -27 4 -38 15 -38
12 0 15 13 15 60 0 72 -17 79 -61 28 l-28 -33 -1 33 c0 25 -4 32 -20 32 -18 0
-20 -7 -20 -60z"/>
<path d="M8370 4296 c0 -2 11 -29 25 -60 27 -61 26 -76 -6 -76 -10 0 -19 -4
-19 -10 0 -5 14 -10 31 -10 27 0 33 6 56 58 43 96 44 102 28 102 -8 0 -23 -19
-32 -42 l-17 -42 -18 42 c-10 23 -25 42 -33 42 -8 0 -15 -2 -15 -4z"/>
<path d="M8530 4219 c0 -64 3 -79 15 -79 9 0 15 9 15 25 0 22 3 24 29 19 55
-11 94 62 53 99 -12 11 -34 16 -65 15 l-47 -1 0 -78z m90 42 c15 -30 2 -53
-29 -49 -29 3 -40 31 -21 53 17 21 37 19 50 -4z"/>
<path d="M8694 4275 c-40 -62 51 -131 101 -75 23 25 23 70 -1 87 -30 22 -81
16 -100 -12z m74 -4 c8 -4 12 -19 10 -32 -2 -18 -9 -24 -28 -24 -19 0 -26 6
-28 24 -3 20 11 41 28 41 3 0 11 -4 18 -9z"/>
<path d="M8850 4241 l0 -61 38 0 c49 0 78 20 67 46 -4 10 -8 30 -9 44 -1 23
-6 25 -48 28 l-48 3 0 -60z m70 24 c0 -8 -9 -15 -20 -15 -11 0 -20 7 -20 15 0
8 9 15 20 15 11 0 20 -7 20 -15z m8 -47 c-7 -20 -48 -23 -48 -4 0 11 9 16 26
16 16 0 24 -5 22 -12z"/>
<path d="M9005 4284 c-42 -42 8 -115 68 -100 34 8 36 30 2 24 -14 -3 -33 1
-42 8 -16 12 -12 13 30 14 40 0 47 3 47 19 0 46 -71 69 -105 35z m73 -21 c2
-9 -7 -13 -27 -13 -30 0 -39 9 -24 24 11 10 46 3 51 -11z"/>
<path d="M9150 4240 c0 -47 3 -60 15 -60 9 0 15 10 15 26 0 22 4 25 28 22 19
-2 28 -9 30 -25 2 -13 10 -23 18 -23 11 0 14 15 14 60 0 45 -3 60 -14 60 -8 0
-16 -10 -18 -22 -2 -17 -11 -24 -30 -26 -24 -3 -28 0 -28 22 0 16 -6 26 -15
26 -12 0 -15 -13 -15 -60z"/>
<path d="M9310 4240 l0 -60 36 0 c48 0 74 16 74 44 0 25 -17 36 -56 36 -17 0
-24 6 -24 20 0 11 -7 20 -15 20 -12 0 -15 -13 -15 -60z m78 -17 c-2 -10 -13
-19 -26 -21 -17 -3 -22 2 -22 17 0 16 6 21 26 21 19 0 25 -5 22 -17z"/>
<path d="M7180 3870 c0 -5 5 -10 10 -10 6 0 10 -25 10 -55 0 -30 5 -55 10 -55
6 0 10 28 10 65 0 58 -2 65 -20 65 -11 0 -20 -4 -20 -10z"/>
<path d="M7286 3836 c-20 -23 -36 -46 -36 -50 0 -3 16 -6 35 -6 24 0 35 -5 35
-15 0 -8 5 -15 10 -15 6 0 10 6 10 14 0 8 4 16 9 18 5 2 3 12 -5 23 -14 19
-16 19 -25 3 -10 -18 -39 -25 -39 -10 0 4 11 23 25 42 14 19 25 35 25 37 0 10
-13 -2 -44 -41z"/>
<path d="M7400 3860 c-42 -42 -10 -120 43 -106 27 6 40 28 31 51 -6 15 -22 19
-56 16 -10 -1 -18 4 -18 13 0 20 34 38 56 29 12 -4 15 -3 10 5 -11 18 -44 14
-66 -8z m60 -70 c0 -24 -15 -33 -40 -25 -24 8 -26 31 -3 43 22 13 43 4 43 -18z"/>
<path d="M7575 3839 c-19 -9 -19 -9 1 -5 29 5 41 -4 45 -33 5 -30 -24 -52 -43
-33 -10 10 -10 15 2 23 13 9 13 10 0 6 -8 -2 -15 -12 -15 -23 0 -15 8 -19 38
-21 37 -1 37 -1 37 38 0 28 -5 41 -19 49 -22 12 -20 12 -46 -1z"/>
<path d="M7805 3839 l-20 -9 20 1 c38 2 42 -1 43 -32 1 -33 -22 -49 -41 -30
-9 9 -8 14 3 21 13 8 12 10 -3 10 -13 0 -18 -6 -15 -22 2 -19 10 -23 41 -25
36 -1 37 0 37 32 0 19 -7 41 -16 49 -17 18 -21 18 -49 5z"/>
<path d="M8040 3830 c-25 -25 -25 -42 -2 -63 21 -19 40 -21 62 -7 11 8 9 9
-11 5 -29 -7 -53 14 -47 42 5 24 39 29 55 7 7 -10 15 -15 19 -12 7 8 -32 48
-46 48 -5 0 -19 -9 -30 -20z"/>
<path d="M8560 3832 c-46 -38 7 -104 57 -72 17 11 17 11 -1 6 -33 -11 -56 3
-56 34 0 36 25 45 50 20 15 -15 20 -16 20 -5 0 12 -28 35 -43 35 -3 0 -15 -8
-27 -18z"/>
<path d="M8682 3834 c-32 -22 -26 -65 11 -78 20 -7 30 -6 40 3 10 11 8 12 -9
7 -31 -10 -58 19 -43 46 8 14 18 19 35 15 27 -5 33 7 8 17 -20 8 -16 9 -42
-10z"/>
<path d="M9310 3839 c-12 -8 -12 -10 5 -8 39 3 45 -1 45 -31 0 -34 -24 -50
-43 -31 -9 9 -8 14 3 21 13 8 12 10 -3 10 -13 0 -18 -6 -15 -22 2 -19 10 -23
41 -25 36 -1 37 0 37 32 0 51 -35 78 -70 54z"/>
<path d="M9432 3839 c-19 -7 -23 -15 -20 -41 2 -25 9 -35 31 -42 19 -7 31 -6
40 3 10 10 7 11 -14 6 -29 -7 -53 14 -47 42 2 13 13 18 36 18 34 0 42 9 16 19
-9 3 -16 6 -17 5 -1 0 -12 -4 -25 -10z"/>
<path d="M9543 3840 c-34 -14 -32 -66 3 -82 33 -15 58 -1 62 38 3 18 -2 32
-14 41 -20 15 -21 15 -51 3z m54 -26 c8 -22 -10 -49 -32 -49 -10 0 -22 7 -28
16 -15 24 -1 49 28 49 15 0 28 -7 32 -16z"/>
<path d="M7682 3795 c0 -27 3 -40 5 -27 5 27 24 28 48 2 10 -11 20 -18 23 -15
3 3 -3 14 -13 25 -14 16 -16 23 -7 32 24 24 11 31 -13 8 l-25 -23 -9 24 c-8
20 -10 16 -9 -26z"/>
<path d="M7910 3806 c0 -19 -4 -38 -10 -41 -5 -3 -10 -14 -9 -23 0 -11 3 -12
6 -4 3 7 23 12 48 12 25 0 46 -5 49 -12 4 -7 4 -2 1 12 -2 14 -5 40 -5 58 0
31 -2 32 -40 32 -39 0 -40 -1 -40 -34z m60 -11 c0 -31 -3 -35 -26 -35 -22 0
-25 3 -20 23 3 12 6 28 6 35 0 6 9 12 20 12 16 0 20 -7 20 -35z"/>
<path d="M8152 3793 c1 -37 2 -40 5 -15 5 39 16 41 32 5 l13 -27 16 27 c22 35
30 34 35 -5 3 -25 4 -22 5 15 2 55 -8 59 -36 15 l-20 -31 -16 31 c-23 45 -36
39 -34 -15z"/>
<path d="M8300 3795 c0 -25 4 -45 9 -45 5 0 22 17 37 38 l29 37 6 -40 6 -40 2
48 c0 26 -2 47 -6 47 -5 0 -20 -14 -35 -32 l-27 -33 -1 33 c0 17 -4 32 -10 32
-5 0 -10 -20 -10 -45z"/>
<path d="M8420 3820 c0 -23 32 -43 54 -34 12 4 16 0 16 -15 0 -12 5 -21 10
-21 6 0 10 20 10 45 0 25 -4 45 -10 45 -5 0 -10 -9 -10 -19 0 -20 -17 -31 -37
-24 -7 3 -13 13 -13 24 0 10 -4 19 -10 19 -5 0 -10 -9 -10 -20z"/>
<path d="M8782 3795 c0 -27 3 -40 5 -27 5 27 24 28 48 2 10 -11 20 -18 23 -15
3 3 -3 14 -13 25 -14 16 -16 23 -7 32 24 24 11 31 -13 8 l-25 -23 -9 24 c-8
20 -10 16 -9 -26z"/>
<path d="M8890 3795 c0 -25 4 -45 9 -45 5 0 22 17 37 38 l29 37 6 -40 6 -40 2
48 c0 26 -3 47 -8 47 -5 0 -21 -15 -35 -32 l-26 -33 0 33 c0 17 -4 32 -10 32
-5 0 -10 -20 -10 -45z"/>
<path d="M9028 3828 c17 -17 15 -38 -5 -60 -9 -10 -11 -18 -5 -18 6 0 17 9 26
21 l14 21 11 -21 c7 -12 16 -21 22 -21 5 0 2 11 -6 24 -14 20 -14 29 -4 48 12
23 12 23 -9 4 -20 -17 -22 -17 -28 -2 -3 9 -11 16 -17 16 -7 0 -7 -4 1 -12z"/>
<path d="M9181 3819 c-1 -28 18 -42 44 -33 9 4 18 -2 24 -17 8 -20 10 -15 10
26 0 37 -2 45 -9 29 -16 -39 -53 -39 -63 1 -4 16 -5 15 -6 -6z"/>
<path d="M9648 3795 c4 -42 6 -45 32 -45 36 0 49 17 43 58 -4 21 -11 32 -22
32 -13 0 -14 -2 -2 -9 12 -8 12 -12 2 -25 -9 -11 -10 -16 -2 -16 6 0 11 -7 11
-15 0 -9 -9 -15 -25 -15 -23 0 -25 3 -22 40 2 24 -1 40 -7 40 -7 0 -10 -17 -8
-45z"/>
<path d="M11239 3036 c-2 -2 -24 -6 -49 -10 -110 -14 -254 -71 -333 -130 -39
-29 -158 -136 -151 -136 3 0 -9 -15 -26 -32 -40 -42 -135 -234 -158 -318 -24
-92 -23 -309 2 -405 31 -116 68 -198 131 -284 6 -7 37 -42 69 -77 l59 -64
-1804 -3 -1804 -2 1811 -3 1811 -2 34 -25 c40 -30 232 -125 251 -125 7 0 -26
18 -74 39 -97 43 -181 99 -171 114 3 6 1 7 -5 3 -24 -15 -151 124 -214 234
-30 54 -75 164 -82 204 -10 55 -17 111 -20 156 -4 66 20 236 42 300 31 89 97
210 142 262 8 9 20 23 26 30 46 55 186 157 268 193 78 36 201 65 301 72 50 3
92 7 94 9 2 2 -29 4 -71 4 -41 0 -77 -2 -79 -4z"/>
<path d="M11418 3023 c12 -2 30 -2 40 0 9 3 -1 5 -23 4 -22 0 -30 -2 -17 -4z"/>
<path d="M11488 3013 c7 -3 16 -2 19 1 4 3 -2 6 -13 5 -11 0 -14 -3 -6 -6z"/>
<path d="M11545 3000 c11 -5 27 -9 35 -9 9 0 8 4 -5 9 -11 5 -27 9 -35 9 -9 0
-8 -4 5 -9z"/>
<path d="M11675 2952 c177 -87 284 -191 376 -366 66 -126 92 -231 93 -378 1
-65 5 -118 10 -118 13 0 -1 268 -18 325 -56 194 -158 345 -308 459 -50 37
-165 99 -208 110 -14 4 11 -11 55 -32z"/>
<path d="M11314 2955 c-4 -9 -4 -19 0 -22 3 -4 6 1 6 10 0 28 18 19 23 -10 5
-28 5 -28 3 1 -1 33 -23 47 -32 21z"/>
<path d="M11202 2935 c0 -16 2 -22 5 -12 2 9 2 23 0 30 -3 6 -5 -1 -5 -18z"/>
<path d="M11255 2938 c4 -13 12 -27 18 -33 7 -7 8 -4 3 8 -3 10 -6 25 -6 33 0
8 -5 14 -11 14 -6 0 -8 -9 -4 -22z"/>
<path d="M11382 2930 c0 -19 2 -27 5 -17 2 9 2 25 0 35 -3 9 -5 1 -5 -18z"/>
<path d="M11446 2924 c-4 -14 -5 -29 -1 -32 3 -3 5 2 5 11 0 23 20 22 21 0 0
-11 3 -13 6 -6 2 7 -2 22 -10 33 -14 21 -15 21 -21 -6z"/>
<path d="M11120 2924 c0 -8 4 -13 9 -10 5 3 11 -4 14 -16 4 -12 9 -20 12 -16
7 7 -16 58 -27 58 -4 0 -8 -7 -8 -16z"/>
<path d="M11406 2913 c-6 -14 -5 -15 5 -6 7 7 10 15 7 18 -3 3 -9 -2 -12 -12z"/>
<path d="M11052 2910 c0 -8 3 -24 8 -35 8 -19 9 -19 9 -1 1 16 3 17 19 5 15
-13 16 -12 3 3 -7 10 -17 16 -21 13 -5 -3 -11 3 -13 12 -3 12 -5 13 -5 3z"/>
<path d="M11577 2907 c-4 -10 -7 -26 -7 -35 1 -15 2 -15 11 1 6 10 9 25 7 35
-3 16 -4 15 -11 -1z"/>
<path d="M10990 2873 c0 -9 3 -13 7 -9 4 3 13 -4 20 -16 7 -14 12 -17 12 -8 0
16 -22 50 -33 50 -3 0 -6 -7 -6 -17z"/>
<path d="M10936 2862 c-3 -5 1 -9 9 -9 8 0 15 4 15 9 0 4 -4 8 -9 8 -6 0 -12
-4 -15 -8z"/>
<path d="M11228 2843 c7 -3 16 -2 19 1 4 3 -2 6 -13 5 -11 0 -14 -3 -6 -6z"/>
<path d="M11700 2831 c-13 -26 -13 -31 3 -25 7 2 13 13 14 24 2 25 -3 25 -17
1z"/>
<path d="M11178 2833 c7 -3 16 -2 19 1 4 3 -2 6 -13 5 -11 0 -14 -3 -6 -6z"/>
<path d="M11458 2833 c7 -3 16 -2 19 1 4 3 -2 6 -13 5 -11 0 -14 -3 -6 -6z"/>
<path d="M11737 2811 c-9 -17 -12 -31 -8 -31 9 0 34 51 27 57 -2 2 -11 -10
-19 -26z"/>
<path d="M11115 2815 c-25 -12 -26 -14 -5 -9 28 7 60 23 45 23 -5 0 -23 -6
-40 -14z"/>
<path d="M10910 2796 c0 -8 4 -17 9 -20 5 -4 7 3 4 14 -6 23 -13 26 -13 6z"/>
<path d="M11786 2794 c-9 -23 -2 -28 13 -10 7 8 8 17 3 20 -6 3 -13 -1 -16
-10z"/>
<path d="M10830 2783 c0 -6 9 -21 21 -34 l20 -24 -17 30 c-24 39 -24 40 -24
28z"/>
<path d="M11030 2780 c-8 -5 -10 -10 -5 -10 6 0 17 5 25 10 8 5 11 10 5 10 -5
0 -17 -5 -25 -10z"/>
<path d="M11804 2755 c-9 -14 -15 -28 -12 -30 2 -2 12 9 22 25 21 36 13 40
-10 5z"/>
<path d="M10970 2742 l-25 -25 33 19 c17 10 32 22 32 26 0 14 -14 7 -40 -20z"/>
<path d="M7180 2685 c0 -37 4 -65 10 -65 6 0 10 14 10 30 0 39 12 38 44 -2 32
-41 46 -30 15 11 l-23 31 22 30 c27 36 8 41 -20 5 -11 -14 -24 -25 -29 -25 -5
0 -9 11 -9 25 0 14 -4 25 -10 25 -6 0 -10 -28 -10 -65z"/>
<path d="M8410 2739 c0 -10 23 -17 38 -12 21 8 13 18 -13 18 -14 0 -25 -3 -25
-6z"/>
<path d="M10815 2720 c10 -11 20 -20 23 -20 3 0 -3 9 -13 20 -10 11 -20 20
-23 20 -3 0 3 -9 13 -20z"/>
<path d="M11843 2723 c-13 -8 -23 -19 -23 -24 0 -12 38 12 44 28 6 16 6 16
-21 -4z"/>
<path d="M7306 2704 c-32 -31 -14 -84 29 -84 27 0 45 18 45 46 0 25 -24 54
-45 54 -7 0 -21 -7 -29 -16z m52 -33 c4 -26 -13 -42 -35 -34 -14 5 -18 45 -6
57 14 14 38 0 41 -23z"/>
<path d="M7407 2713 c-11 -10 -8 -93 3 -93 6 0 10 15 10 33 l0 32 20 -25 19
-25 18 25 18 25 6 -35 c6 -31 7 -29 8 18 0 28 -3 52 -7 52 -4 0 -16 -14 -26
-31 l-18 -31 -19 31 c-20 33 -22 35 -32 24z"/>
<path d="M7541 2668 c1 -47 2 -49 8 -18 l6 35 18 -25 18 -25 19 25 20 25 0
-32 c0 -18 5 -33 10 -33 13 0 13 87 0 95 -5 3 -18 -8 -29 -25 l-19 -32 -18 31
c-10 17 -22 31 -26 31 -4 0 -7 -24 -7 -52z"/>
<path d="M7686 2704 c-19 -18 -21 -55 -4 -72 15 -15 55 -16 64 -1 3 6 -1 10
-12 9 -34 -4 -44 0 -44 15 0 10 10 15 30 15 35 0 41 23 11 40 -25 13 -27 13
-45 -6z m49 -14 c4 -6 -5 -10 -20 -10 -15 0 -24 4 -20 10 3 6 12 10 20 10 8 0
17 -4 20 -10z"/>
<path d="M7780 2653 c0 -36 4 -63 10 -63 6 0 10 7 10 15 0 8 8 15 18 15 26 0
42 20 42 51 0 33 -17 48 -52 46 -27 -2 -28 -3 -28 -64z m58 18 c4 -23 -15 -44
-30 -35 -4 3 -8 19 -8 35 0 24 4 30 18 27 9 -2 19 -14 20 -27z"/>
<path d="M7882 2693 c2 -22 9 -29 31 -31 19 -2 27 -9 27 -23 0 -10 5 -19 10
-19 6 0 10 20 10 44 0 25 -4 48 -10 51 -6 4 -10 -5 -10 -19 0 -19 -5 -26 -20
-26 -15 0 -20 7 -20 25 0 14 -5 25 -11 25 -6 0 -9 -12 -7 -27z"/>
<path d="M7996 2704 c-19 -18 -21 -55 -4 -72 15 -15 55 -16 64 -1 3 6 -1 10
-12 9 -34 -4 -44 0 -44 15 0 10 10 15 30 15 31 0 39 17 18 38 -16 16 -33 15
-52 -4z m49 -14 c4 -6 -5 -10 -20 -10 -15 0 -24 4 -20 10 3 6 12 10 20 10 8 0
17 -4 20 -10z"/>
<path d="M8095 2700 c-15 -16 -17 -26 -9 -48 10 -30 48 -42 68 -22 8 9 6 11
-10 6 -27 -8 -48 16 -39 44 4 13 15 20 33 20 21 0 24 2 12 10 -22 14 -35 12
-55 -10z"/>
<path d="M8180 2670 c0 -27 5 -50 10 -50 6 0 10 9 10 20 0 11 4 20 10 20 5 0
14 -9 20 -20 16 -29 32 -25 18 5 -8 19 -8 31 0 50 15 33 7 32 -23 -2 l-24 -28
-1 28 c0 15 -4 27 -10 27 -5 0 -10 -22 -10 -50z"/>
<path d="M8280 2670 c0 -57 9 -62 39 -22 l20 27 1 -27 c0 -16 5 -28 10 -28 6
0 10 24 10 53 l-1 52 -29 -35 -29 -35 -1 33 c0 17 -4 32 -10 32 -5 0 -10 -22
-10 -50z"/>
<path d="M8398 2714 c-11 -11 -10 -94 1 -94 5 0 19 12 30 28 l20 27 1 -27 c0
-16 5 -28 10 -28 6 0 10 24 10 53 l0 52 -28 -35 -27 -35 -5 34 c-3 18 -8 29
-12 25z"/>
<path d="M8574 2685 c-3 -19 -10 -38 -15 -41 -5 -3 -8 -17 -8 -32 1 -17 3 -21
6 -9 6 23 83 25 83 2 0 -8 5 -15 10 -15 13 0 13 33 1 46 -5 5 -11 25 -13 44
-3 30 -7 35 -30 38 -24 3 -28 -1 -34 -33z m46 -15 c0 -22 -5 -30 -18 -30 -15
0 -18 6 -14 30 2 17 10 30 18 30 9 0 14 -11 14 -30z"/>
<path d="M8682 2670 l-1 -55 28 35 29 35 5 -35 c3 -26 4 -20 5 20 l2 55 -22
-32 c-29 -41 -36 -41 -41 0 -2 20 -4 12 -5 -23z"/>
<path d="M8791 2651 c1 -36 3 -58 6 -48 3 10 14 17 27 17 65 0 62 91 -3 95
l-31 2 1 -66z m57 20 c4 -26 -13 -42 -35 -34 -14 5 -18 45 -6 57 14 14 38 0
41 -23z"/>
<path d="M8908 2709 c-21 -12 -24 -59 -6 -77 15 -15 55 -16 64 -1 3 6 -1 10
-12 9 -34 -4 -44 0 -44 15 0 10 10 15 30 15 35 0 41 23 11 40 -23 12 -22 12
-43 -1z m42 -19 c0 -5 -9 -10 -21 -10 -11 0 -17 5 -14 10 3 6 13 10 21 10 8 0
14 -4 14 -10z"/>
<path d="M9002 2670 c0 -30 3 -45 5 -32 5 27 19 28 35 2 7 -11 19 -20 26 -20
9 0 8 6 -3 24 -13 19 -14 29 -6 45 19 34 11 37 -14 6 -18 -21 -25 -25 -29 -15
-2 8 -7 22 -9 30 -3 8 -5 -10 -5 -40z"/>
<path d="M9085 2710 c-3 -5 3 -10 14 -10 18 0 21 -6 21 -40 0 -22 5 -40 10
-40 6 0 10 18 10 40 0 34 3 40 21 40 11 0 17 5 14 10 -3 6 -24 10 -45 10 -21
0 -42 -4 -45 -10z"/>
<path d="M9208 2708 c-39 -32 -19 -92 30 -86 22 2 28 9 30 36 5 52 -25 77 -60
50z m50 -31 c5 -23 -15 -47 -34 -40 -8 3 -14 18 -14 35 0 25 4 29 22 26 13 -2
24 -11 26 -21z"/>
<path d="M9300 2653 c0 -35 4 -63 10 -63 6 0 10 7 10 15 0 9 9 15 25 15 29 0
47 34 38 69 -6 22 -7 23 -53 25 l-30 1 0 -62z m63 27 c6 -23 -16 -56 -31 -46
-13 8 -16 48 -5 59 13 13 31 7 36 -13z"/>
<path d="M10878 2663 c-73 -75 -130 -167 -157 -252 -20 -62 -10 -57 13 6 32
86 80 163 149 239 32 35 57 64 55 64 -2 0 -29 -26 -60 -57z"/>
<path d="M11740 2695 c13 -14 26 -25 28 -25 3 0 -5 11 -18 25 -13 14 -26 25
-28 25 -3 0 5 -11 18 -25z"/>
<path d="M11870 2695 c-13 -14 -20 -25 -17 -25 10 0 49 41 45 46 -3 2 -15 -7
-28 -21z"/>
<path d="M10750 2699 c0 -5 5 -7 10 -4 6 3 10 8 10 11 0 2 -4 4 -10 4 -5 0
-10 -5 -10 -11z"/>
<path d="M10770 2681 c0 -6 6 -8 14 -5 8 3 16 -2 20 -13 4 -15 5 -15 3 2 -2
20 -37 35 -37 16z"/>
<path d="M11826 2605 c38 -47 52 -57 35 -27 -11 20 -59 72 -67 72 -3 0 11 -20
32 -45z"/>
<path d="M11920 2629 c0 -5 5 -7 10 -4 6 3 10 8 10 11 0 2 -4 4 -10 4 -5 0
-10 -5 -10 -11z"/>
<path d="M11934 2604 c-18 -14 -18 -15 4 -4 12 6 22 13 22 15 0 8 -5 6 -26
-11z"/>
<path d="M10701 2569 c31 -24 44 -24 22 -1 -10 10 -24 18 -32 18 -7 1 -3 -7
10 -17z"/>
<path d="M11891 2508 c32 -62 49 -116 64 -193 7 -39 14 -57 14 -40 1 17 -6 58
-14 90 -16 61 -69 185 -80 185 -3 0 4 -19 16 -42z"/>
<path d="M7191 2484 c-24 -63 -25 -74 -11 -74 6 0 10 7 10 15 0 22 56 20 69
-2 5 -10 12 -15 15 -12 9 9 -38 129 -50 129 -6 0 -21 -25 -33 -56z m46 -20
c-3 -3 -12 -4 -20 -2 -11 2 -12 9 -5 28 l10 25 11 -23 c5 -12 8 -25 4 -28z"/>
<path d="M7317 2522 c-31 -34 -20 -98 19 -113 69 -26 121 63 68 116 -21 21
-67 19 -87 -3z m85 -28 c13 -28 5 -49 -25 -68 -34 -22 -72 28 -56 72 12 33 65
31 81 -4z"/>
<path d="M7621 2518 c-5 -13 -16 -41 -25 -62 -17 -40 -13 -65 5 -33 13 22 58
22 75 0 23 -33 22 -8 -3 55 -27 66 -38 75 -52 40z m32 -38 c4 -15 0 -20 -15
-20 -14 0 -18 5 -14 16 3 9 6 20 6 25 0 17 17 1 23 -21z"/>
<path d="M8620 2475 c0 -37 4 -65 10 -65 6 0 10 25 10 55 0 54 0 55 30 55 30
0 30 -1 30 -55 0 -30 5 -55 10 -55 6 0 10 28 10 65 l0 65 -50 0 -50 0 0 -65z"/>
<path d="M10635 2520 c-3 -5 -1 -10 4 -10 6 0 11 5 11 10 0 6 -2 10 -4 10 -3
0 -8 -4 -11 -10z"/>
<path d="M11980 2520 c-8 -5 -10 -10 -5 -10 6 0 17 5 25 10 8 5 11 10 5 10 -5
0 -17 -5 -25 -10z"/>
<path d="M10677 2499 c7 -7 15 -10 18 -7 3 3 -2 9 -12 12 -14 6 -15 5 -6 -5z"/>
<path d="M7722 2455 c-1 -43 1 -47 9 -25 l10 25 20 -24 c23 -28 36 -22 19 9
-9 16 -9 25 1 36 6 8 9 17 5 21 -3 4 -13 -3 -22 -15 -19 -28 -31 -28 -37 1 -2
12 -5 0 -5 -28z"/>
<path d="M7820 2490 c0 -5 10 -9 21 -7 12 1 24 -4 26 -10 3 -8 -3 -13 -14 -13
-35 0 -58 -42 -30 -53 7 -3 25 -3 40 0 22 4 27 11 27 33 0 46 -10 60 -41 60
-16 0 -29 -4 -29 -10z m50 -50 c0 -13 -28 -25 -38 -16 -3 4 0 11 8 16 20 13
30 12 30 0z"/>
<path d="M7930 2465 c0 -22 -6 -38 -15 -41 -8 -4 -15 -15 -15 -25 0 -23 15
-25 24 -4 8 21 62 19 76 -2 9 -15 10 -12 6 16 -3 18 -6 46 -6 62 0 26 -3 29
-35 29 -33 0 -35 -2 -35 -35z m50 -10 c0 -29 -4 -35 -21 -35 -17 0 -20 4 -15
23 3 12 6 28 6 35 0 6 7 12 15 12 10 0 15 -11 15 -35z"/>
<path d="M8042 2488 c-19 -19 -15 -66 6 -77 19 -10 62 -4 62 8 0 4 -12 7 -27
6 -14 0 -28 6 -30 13 -3 8 6 12 26 12 31 0 36 6 25 34 -7 19 -45 21 -62 4z
m46 -16 c2 -7 -6 -12 -17 -12 -21 0 -27 11 -14 24 9 9 26 2 31 -12z"/>
<path d="M8130 2455 c0 -48 20 -64 21 -17 l0 27 16 -22 c20 -30 27 -29 43 5
l14 27 7 -35 c6 -34 6 -33 8 13 1 53 -9 59 -34 20 l-17 -26 -17 26 c-24 41
-41 34 -41 -18z"/>
<path d="M8270 2455 c0 -52 10 -56 39 -17 l20 27 1 -27 c0 -16 5 -28 10 -28 6
0 10 20 10 45 0 53 -11 57 -39 13 l-21 -33 0 33 c0 17 -4 32 -10 32 -5 0 -10
-20 -10 -45z"/>
<path d="M8383 2484 c-3 -8 -1 -20 5 -26 9 -9 9 -15 0 -25 -6 -7 -8 -17 -4
-21 4 -4 12 1 17 11 12 21 29 22 29 2 0 -8 5 -15 10 -15 6 0 10 20 10 45 0 43
-1 45 -30 45 -19 0 -33 -6 -37 -16z m47 -9 c0 -8 -7 -15 -15 -15 -8 0 -15 7
-15 15 0 8 7 15 15 15 8 0 15 -7 15 -15z"/>
<path d="M8750 2438 c0 -32 4 -58 10 -58 6 0 10 7 10 16 0 10 5 14 15 10 16
-6 55 26 55 45 0 30 -22 48 -55 47 l-35 -1 0 -59z m60 37 c16 -19 3 -57 -18
-53 -18 3 -27 30 -18 54 7 18 20 18 36 -1z"/>
<path d="M8866 2484 c-20 -51 12 -96 53 -75 25 14 32 36 21 66 -7 19 -17 25
-39 25 -17 0 -31 -6 -35 -16z m54 -13 c13 -25 3 -51 -20 -51 -23 0 -36 36 -20
55 17 20 27 19 40 -4z"/>
<path d="M8977 2493 c-4 -3 -7 -21 -7 -39 0 -36 26 -59 54 -48 25 10 19 22 -8
17 -18 -4 -26 0 -31 17 -9 27 12 52 36 45 11 -4 19 -2 19 4 0 12 -52 15 -63 4z"/>
<path d="M9060 2456 c0 -46 0 -46 35 -46 35 0 35 0 32 43 -2 40 -4 42 -34 45
-33 3 -33 3 -33 -42z m53 19 c1 -5 -6 -11 -15 -13 -11 -2 -18 3 -18 13 0 17
30 18 33 0z m0 -40 c1 -5 -6 -11 -15 -13 -11 -2 -18 3 -18 13 0 17 30 18 33 0z"/>
<path d="M9160 2475 c-5 -14 -7 -32 -4 -40 8 -21 39 -36 58 -29 25 9 19 22 -8
17 -15 -3 -25 1 -29 11 -5 12 0 16 23 16 34 0 47 15 30 35 -20 24 -59 19 -70
-10z m58 -3 c2 -7 -6 -12 -17 -12 -21 0 -27 11 -14 24 9 9 26 2 31 -12z"/>
<path d="M9260 2455 l0 -45 64 0 c43 0 66 -4 69 -12 2 -7 3 0 1 16 -2 16 -4
41 -4 57 0 16 -4 29 -10 29 -5 0 -10 -18 -10 -40 0 -29 -4 -40 -15 -40 -11 0
-15 11 -15 40 0 22 -4 40 -10 40 -5 0 -10 -18 -10 -40 0 -33 -3 -40 -20 -40
-17 0 -20 7 -20 40 0 22 -4 40 -10 40 -5 0 -10 -20 -10 -45z"/>
<path d="M9432 2488 c-18 -18 -15 -66 6 -77 19 -10 62 -4 62 8 0 4 -12 7 -27
6 -14 0 -28 6 -30 13 -3 8 6 12 27 12 27 0 31 3 28 23 -3 25 -45 36 -66 15z
m46 -16 c2 -7 -6 -12 -17 -12 -21 0 -27 11 -14 24 9 9 26 2 31 -12z"/>
<path d="M9530 2455 c0 -25 5 -45 10 -45 6 0 10 9 10 20 0 13 7 20 20 20 13 0
20 -7 20 -20 0 -11 5 -20 10 -20 6 0 10 20 10 45 0 25 -4 45 -10 45 -5 0 -10
-9 -10 -20 0 -13 -7 -20 -20 -20 -13 0 -20 7 -20 20 0 11 -4 20 -10 20 -5 0
-10 -20 -10 -45z"/>
<path d="M9641 2458 c-1 -56 11 -61 36 -15 l18 32 3 -32 c5 -49 22 -40 22 12
0 53 -10 57 -42 13 l-23 -33 -6 35 c-6 33 -6 32 -8 -12z"/>
<path d="M9752 2488 c-13 -13 -16 -47 -4 -64 10 -15 40 -24 57 -18 24 9 17 20
-12 19 -14 0 -28 6 -30 13 -3 8 6 12 27 12 27 0 31 3 28 23 -3 25 -45 36 -66
15z m56 -15 c2 -8 -6 -13 -22 -13 -25 0 -33 10 -19 24 10 10 36 3 41 -11z"/>
<path d="M7511 2471 c-7 -13 -6 -23 2 -35 11 -16 13 -13 13 18 0 41 -2 43 -15
17z"/>
<path d="M7542 2478 c-16 -16 -15 -33 3 -48 9 -8 15 -9 15 -2 0 6 -5 14 -10
17 -8 5 -7 11 1 21 15 18 7 28 -9 12z"/>
<path d="M8535 2471 c-6 -21 3 -51 16 -51 6 0 6 7 0 18 -6 12 -6 23 1 33 8 12
9 11 5 -3 -3 -9 0 -24 8 -34 12 -17 13 -15 12 17 -1 26 -5 35 -18 36 -10 1
-21 -6 -24 -16z"/>
<path d="M9854 2456 c0 -41 2 -43 15 -17 7 13 6 23 -2 35 -11 16 -13 13 -13
-18z"/>
<path d="M9884 2455 c0 -29 2 -31 12 -17 9 13 10 21 1 32 -6 8 -12 16 -12 17
-1 1 -1 -13 -1 -32z"/>
<path d="M10893 2445 c0 -27 2 -38 4 -22 2 15 2 37 0 50 -2 12 -4 0 -4 -28z"/>
<path d="M12000 2455 c-8 -9 -8 -15 -2 -15 12 0 26 19 19 26 -2 2 -10 -2 -17
-11z"/>
<path d="M10665 2430 c3 -5 8 -10 11 -10 2 0 4 5 4 10 0 6 -5 10 -11 10 -5 0
-7 -4 -4 -10z"/>
<path d="M10931 2418 c-1 -16 4 -28 9 -28 12 0 12 8 0 35 -8 18 -9 17 -9 -7z"/>
<path d="M10982 2410 c0 -14 2 -19 5 -12 2 6 2 18 0 25 -3 6 -5 1 -5 -13z"/>
<path d="M11041 2408 c0 -9 -4 -25 -7 -35 -5 -14 -4 -15 5 -7 7 7 11 22 8 35
-2 13 -5 16 -6 7z"/>
<path d="M11062 2390 c0 -14 2 -19 5 -12 2 6 2 18 0 25 -3 6 -5 1 -5 -13z"/>
<path d="M12040 2400 c-13 -8 -12 -10 3 -10 9 0 17 5 17 10 0 12 -1 12 -20 0z"/>
<path d="M11141 2374 c0 -11 3 -14 6 -6 3 7 2 16 -1 19 -3 4 -6 -2 -5 -13z"/>
<path d="M11167 2371 c-4 -17 -3 -21 5 -13 5 5 8 16 6 23 -3 8 -7 3 -11 -10z"/>
<path d="M10597 2369 c7 -7 15 -10 18 -7 3 3 -2 9 -12 12 -14 6 -15 5 -6 -5z"/>
<path d="M11241 2358 c0 -16 2 -18 6 -8 3 8 11 18 17 22 7 5 4 8 -6 8 -12 0
-18 -7 -17 -22z"/>
<path d="M11191 2354 c0 -11 3 -14 6 -6 3 7 2 16 -1 19 -3 4 -6 -2 -5 -13z"/>
<path d="M11292 2350 c0 -14 2 -19 5 -12 2 6 2 18 0 25 -3 6 -5 1 -5 -13z"/>
<path d="M12040 2340 c-6 -11 -8 -20 -6 -20 3 0 10 9 16 20 6 11 8 20 6 20 -3
0 -10 -9 -16 -20z"/>
<path d="M10704 2335 c-3 -8 -4 -20 -2 -27 3 -7 7 -1 10 15 6 29 1 36 -8 12z"/>
<path d="M11372 2330 c0 -14 2 -19 5 -12 2 6 2 18 0 25 -3 6 -5 1 -5 -13z"/>
<path d="M11341 2324 c0 -11 3 -14 6 -6 3 7 2 16 -1 19 -3 4 -6 -2 -5 -13z"/>
<path d="M11230 2312 c0 -20 3 -21 20 -12 11 6 20 13 20 16 0 3 -5 2 -11 -2
-6 -3 -15 0 -20 7 -6 10 -9 8 -9 -9z"/>
<path d="M11392 2305 c0 -16 2 -22 5 -12 2 9 2 23 0 30 -3 6 -5 -1 -5 -18z"/>
<path d="M11517 2310 c-3 -11 -1 -20 4 -20 5 0 9 9 9 20 0 11 -2 20 -4 20 -2
0 -6 -9 -9 -20z"/>
<path d="M11311 2304 c0 -11 3 -14 6 -6 3 7 2 16 -1 19 -3 4 -6 -2 -5 -13z"/>
<path d="M11571 2304 c0 -11 3 -14 6 -6 3 7 2 16 -1 19 -3 4 -6 -2 -5 -13z"/>
<path d="M10808 2288 c-3 -7 -2 -35 2 -63 l7 -50 2 63 c1 60 -2 75 -11 50z"/>
<path d="M10695 2185 c1 -60 8 -121 14 -135 11 -24 11 -24 5 5 -3 17 -10 77
-14 135 l-8 105 3 -110z"/>
<path d="M11541 2274 c0 -11 3 -14 6 -6 3 7 2 16 -1 19 -3 4 -6 -2 -5 -13z"/>
<path d="M11641 2274 c0 -11 3 -14 6 -6 3 7 2 16 -1 19 -3 4 -6 -2 -5 -13z"/>
<path d="M11741 2264 c0 -11 3 -14 6 -6 3 7 2 16 -1 19 -3 4 -6 -2 -5 -13z"/>
<path d="M11775 2247 c-8 -39 -1 -58 14 -41 5 5 11 23 15 39 4 20 3 25 -3 16
-7 -11 -10 -10 -13 5 -3 13 -7 7 -13 -19z m12 -29 c-3 -8 -6 -5 -6 6 -1 11 2
17 5 13 3 -3 4 -12 1 -19z"/>
<path d="M11825 2259 c-4 -6 -5 -12 -2 -15 2 -3 7 2 10 11 7 17 1 20 -8 4z"/>
<path d="M10848 2223 c-2 -18 -1 -30 3 -27 4 2 10 -4 12 -13 3 -12 5 -9 5 7 0
14 -3 34 -7 45 -7 17 -9 15 -13 -12z"/>
<path d="M12081 2224 c0 -11 3 -14 6 -6 3 7 2 16 -1 19 -3 4 -6 -2 -5 -13z"/>
<path d="M10916 2215 c-3 -9 -6 -26 -5 -38 1 -14 4 -9 9 13 9 37 7 52 -4 25z"/>
<path d="M11966 2222 c-2 -4 -1 -14 5 -22 7 -12 9 -10 9 8 0 23 -5 28 -14 14z"/>
<path d="M11047 2204 c-12 -12 -8 -34 7 -34 8 0 16 -8 18 -17 3 -11 6 -4 9 15
4 24 2 32 -7 28 -7 -3 -14 0 -16 5 -2 6 -7 7 -11 3z"/>
<path d="M9055 2186 c-121 -38 -194 -122 -195 -223 0 -56 14 -91 57 -134 22
-23 31 -39 24 -43 -6 -4 -11 -16 -11 -27 0 -24 21 -24 91 -1 74 26 179 35 186
17 9 -25 69 -38 99 -23 34 16 39 31 19 52 -13 13 -28 15 -66 10 -44 -6 -49 -5
-49 13 0 27 46 68 102 92 121 52 395 121 480 121 56 0 83 16 45 25 -35 9 -317
-48 -418 -85 -43 -16 -79 -27 -79 -25 0 2 14 17 30 33 53 54 32 99 -40 87 -35
-6 -40 -5 -40 13 0 30 -35 67 -85 91 -50 24 -91 26 -150 7z m164 -34 c36 -17
63 -65 52 -93 -9 -26 -60 -79 -75 -79 -26 0 -65 41 -72 76 -9 49 -24 52 -24 4
0 -31 6 -47 26 -65 15 -14 31 -25 35 -25 5 0 9 -6 9 -12 0 -7 -26 -26 -58 -43
-31 -16 -76 -45 -100 -63 -52 -39 -70 -36 -106 18 -65 98 -3 239 127 289 58
23 127 21 186 -7z m149 -115 c4 -20 -52 -78 -98 -102 -23 -12 -30 -12 -46 0
-16 11 -16 14 -4 18 8 3 36 12 63 22 54 19 65 41 15 31 l-32 -6 29 30 c32 34
68 37 73 7z m-178 -132 c0 -8 -13 -21 -29 -29 -31 -17 -111 -32 -111 -22 0 10
104 66 123 66 9 0 17 -7 17 -15z m-15 -64 c-18 -17 -105 -41 -147 -41 -35 0
-39 2 -28 15 7 8 31 16 54 16 22 1 55 5 71 9 44 11 61 12 50 1z m135 -55 c0
-27 -60 -36 -79 -12 -10 11 -8 15 6 19 39 10 73 7 73 -7z m-310 -16 c-20 -13
-53 -13 -45 0 3 6 18 10 33 10 21 0 24 -2 12 -10z"/>
<path d="M10891 2184 c0 -11 3 -14 6 -6 3 7 2 16 -1 19 -3 4 -6 -2 -5 -13z"/>
<path d="M10991 2173 c1 -22 2 -23 6 -8 3 11 10 23 17 27 7 5 5 8 -6 8 -13 0
-18 -7 -17 -27z"/>
<path d="M11111 2188 c0 -9 -4 -25 -8 -35 -6 -15 -4 -16 9 -5 13 10 17 10 21
0 3 -7 6 1 6 17 1 21 -2 26 -8 16 -7 -11 -10 -10 -14 5 -4 15 -5 16 -6 2z"/>
<path d="M11312 2180 c0 -14 2 -19 5 -12 2 6 2 18 0 25 -3 6 -5 1 -5 -13z"/>
<path d="M10961 2174 c0 -11 3 -14 6 -6 3 7 2 16 -1 19 -3 4 -6 -2 -5 -13z"/>
<path d="M11341 2155 c-1 -11 -4 -31 -6 -45 l-6 -25 11 25 c6 13 9 33 7 45 -4
19 -4 19 -6 0z"/>
<path d="M11962 2130 c0 -19 2 -27 5 -17 2 9 2 25 0 35 -3 9 -5 1 -5 -18z"/>
<path d="M11166 2142 c-3 -5 1 -9 9 -9 8 0 15 4 15 9 0 4 -4 8 -9 8 -6 0 -12
-4 -15 -8z"/>
<path d="M11301 2134 c0 -11 3 -14 6 -6 3 7 2 16 -1 19 -3 4 -6 -2 -5 -13z"/>
<path d="M11370 2133 c0 -15 2 -16 10 -3 9 13 11 13 21 0 9 -13 10 -13 6 0 -6
22 -37 25 -37 3z"/>
<path d="M11475 2120 c-3 -6 1 -7 9 -4 18 7 21 14 7 14 -6 0 -13 -4 -16 -10z"/>
<path d="M11362 2085 c0 -16 2 -22 5 -12 2 9 2 23 0 30 -3 6 -5 -1 -5 -18z"/>
<path d="M12010 2106 c0 -2 7 -6 15 -10 8 -3 15 -1 15 4 0 6 -7 10 -15 10 -8
0 -15 -2 -15 -4z"/>
<path d="M10570 2090 c0 -5 5 -10 11 -10 5 0 7 5 4 10 -3 6 -8 10 -11 10 -2 0
-4 -4 -4 -10z"/>
<path d="M10600 2090 c0 -5 7 -7 15 -4 8 4 15 8 15 10 0 2 -7 4 -15 4 -8 0
-15 -4 -15 -10z"/>
<path d="M11461 2084 c0 -11 3 -14 6 -6 3 7 2 16 -1 19 -3 4 -6 -2 -5 -13z"/>
<path d="M11511 2074 c0 -25 2 -26 8 -9 l8 20 5 -20 c4 -14 6 -15 7 -4 0 9 -6
22 -14 29 -13 11 -15 8 -14 -16z"/>
<path d="M11632 2080 c0 -14 2 -19 5 -12 2 6 2 18 0 25 -3 6 -5 1 -5 -13z"/>
<path d="M11652 2065 c0 -16 2 -22 5 -12 2 9 2 23 0 30 -3 6 -5 -1 -5 -18z"/>
<path d="M11681 2074 c0 -11 3 -14 6 -6 3 7 2 16 -1 19 -3 4 -6 -2 -5 -13z"/>
<path d="M10640 2070 c-8 -5 -12 -12 -9 -15 4 -3 12 1 19 10 14 17 11 19 -10
5z"/>
<path d="M11943 2040 c-5 -22 -7 -40 -3 -40 8 0 24 69 18 76 -2 2 -9 -14 -15
-36z"/>
<path d="M12136 2055 c-41 -179 -115 -317 -232 -431 -78 -76 -153 -127 -249
-167 -41 -17 -73 -33 -70 -35 6 -6 125 44 180 75 125 71 246 206 316 351 39
82 74 203 66 226 -3 6 -8 -2 -11 -19z"/>
<path d="M11752 2050 c0 -14 2 -19 5 -12 2 6 2 18 0 25 -3 6 -5 1 -5 -13z"/>
<path d="M11781 2053 c0 -13 3 -23 8 -23 5 0 12 -8 14 -17 3 -11 5 -7 6 10 0
16 -3 26 -8 22 -5 -3 -12 3 -14 12 -4 14 -5 13 -6 -4z"/>
<path d="M7186 2038 c-34 -49 -7 -108 49 -108 19 0 37 5 41 11 4 8 -3 9 -24 5
-35 -8 -62 13 -62 48 0 30 22 48 54 44 14 -2 26 2 28 7 2 6 -13 11 -34 13 -28
2 -40 -2 -52 -20z"/>
<path d="M8030 2017 c0 -24 -7 -52 -15 -63 -8 -10 -14 -28 -14 -39 1 -17 2
-17 6 -2 6 23 113 26 113 2 0 -8 5 -15 10 -15 6 0 10 9 10 20 0 11 -4 20 -10
20 -6 0 -10 27 -10 60 l0 60 -45 0 -45 0 0 -43z m68 -24 c-3 -45 -5 -48 -32
-51 -28 -3 -29 -2 -22 28 3 18 6 41 6 51 0 14 7 19 26 19 24 0 25 -2 22 -47z"/>
<path d="M8260 1995 l0 -65 43 2 c36 1 38 2 10 5 -27 4 -33 9 -33 28 0 18 6
25 28 28 l27 4 -27 2 c-21 1 -28 6 -28 21 0 16 7 20 30 20 17 0 30 5 30 10 0
6 -18 10 -40 10 l-40 0 0 -65z"/>
<path d="M11722 2030 c0 -14 2 -19 5 -12 2 6 2 18 0 25 -3 6 -5 1 -5 -13z"/>
<path d="M11831 2013 c1 -23 2 -24 6 -6 2 12 12 24 21 26 12 3 10 5 -5 6 -19
1 -23 -4 -22 -26z"/>
<path d="M10595 2020 c-3 -6 1 -7 9 -4 18 7 21 14 7 14 -6 0 -13 -4 -16 -10z"/>
<path d="M7305 1983 c9 -20 18 -39 20 -41 2 -3 0 -13 -6 -23 -5 -11 -6 -19 -1
-19 7 0 62 102 62 115 0 17 -20 0 -31 -27 l-13 -31 -15 31 c-21 45 -35 40 -16
-5z"/>
<path d="M7410 1993 c0 -14 -7 -35 -17 -45 -15 -16 -15 -18 0 -18 10 0 20 14
27 40 15 54 38 53 43 -2 l4 -43 1 48 c2 46 1 47 -28 47 -26 0 -30 -4 -30 -27z"/>
<path d="M7500 1975 c0 -25 3 -45 8 -45 4 0 19 14 34 32 l27 33 1 -32 c0 -18
5 -33 10 -33 6 0 10 20 10 45 0 54 -17 59 -45 13 l-20 -33 -3 33 c-5 48 -22
39 -22 -13z"/>
<path d="M7610 1975 c0 -25 5 -45 10 -45 6 0 10 15 10 33 l1 32 16 -29 16 -30
18 23 19 23 0 -26 c0 -14 5 -26 10 -26 6 0 10 20 10 45 0 51 -10 56 -37 19
l-19 -25 -14 25 c-22 41 -40 33 -40 -19z"/>
<path d="M7750 1999 c-9 -16 -9 -28 -1 -46 9 -20 17 -24 44 -21 30 3 32 5 32
43 0 38 -2 40 -32 43 -24 2 -34 -2 -43 -19z m59 -6 c11 -21 -3 -53 -24 -53
-19 0 -29 38 -15 55 16 20 27 19 39 -2z"/>
<path d="M7860 1975 c0 -46 0 -46 33 -43 30 3 32 5 32 43 0 38 -2 40 -32 43
-33 3 -33 3 -33 -43z m48 23 c-6 -18 -28 -21 -28 -4 0 9 7 16 16 16 9 0 14 -5
12 -12z m5 -43 c1 -5 -6 -11 -15 -13 -11 -2 -18 3 -18 13 0 17 30 18 33 0z"/>
<path d="M10721 2010 c-1 -19 42 -109 64 -135 10 -12 7 -4 -5 18 -12 21 -31
59 -41 85 -10 26 -18 40 -18 32z"/>
<path d="M10620 2000 c-9 -6 -10 -10 -3 -10 6 0 15 5 18 10 8 12 4 12 -15 0z"/>
<path d="M11919 1964 c-5 -15 -12 -31 -16 -37 -3 -6 -1 -7 4 -4 11 7 36 67 27
67 -2 0 -9 -12 -15 -26z"/>
<path d="M10615 1960 c-3 -6 1 -7 9 -4 18 7 21 14 7 14 -6 0 -13 -4 -16 -10z"/>
<path d="M8155 1940 c-3 -5 1 -10 9 -10 9 0 16 5 16 10 0 6 -4 10 -9 10 -6 0
-13 -4 -16 -10z"/>
<path d="M10641 1911 c-7 -5 -12 -14 -10 -20 2 -6 10 -2 17 9 14 22 13 23 -7
11z"/>
<path d="M11870 1867 c-14 -23 -58 -75 -98 -115 -40 -41 -61 -65 -45 -54 59
42 185 194 172 207 -2 1 -15 -15 -29 -38z"/>
<path d="M10664 1854 c-18 -14 -18 -14 6 -3 31 14 36 19 24 19 -6 0 -19 -7
-30 -16z"/>
<path d="M10686 1835 c-11 -8 -15 -15 -9 -15 6 0 16 7 23 15 16 19 11 19 -14
0z"/>
<path d="M10809 1835 c6 -11 22 -33 37 -50 14 -16 21 -21 15 -10 -6 11 -22 34
-37 50 -14 17 -21 21 -15 10z"/>
<path d="M10699 1793 c-13 -15 -12 -15 9 -4 23 12 28 21 13 21 -5 0 -15 -7
-22 -17z"/>
<path d="M11926 1773 c-6 -14 -5 -15 5 -6 7 7 10 15 7 18 -3 3 -9 -2 -12 -12z"/>
<path d="M10880 1751 c0 -5 5 -13 10 -16 6 -3 10 -2 10 4 0 5 -4 13 -10 16 -5
3 -10 2 -10 -4z"/>
<path d="M10914 1722 c8 -13 66 -56 66 -49 0 3 -17 17 -37 33 -20 15 -33 23
-29 16z"/>
<path d="M11886 1721 c-3 -5 2 -15 12 -22 15 -12 16 -12 5 2 -7 9 -10 19 -6
22 3 4 4 7 0 7 -3 0 -8 -4 -11 -9z"/>
<path d="M10787 1702 c-15 -16 -15 -18 1 -18 10 0 18 8 18 18 0 10 -1 18 -2
18 0 0 -8 -8 -17 -18z"/>
<path d="M11645 1655 c-22 -14 -36 -25 -31 -25 10 0 76 40 76 46 0 6 -2 5 -45
-21z"/>
<path d="M10850 1638 c-12 -22 -12 -22 6 -6 10 10 15 20 12 24 -4 3 -12 -5
-18 -18z"/>
<path d="M11730 1642 c0 -10 26 -34 50 -47 8 -4 2 6 -14 23 -32 34 -36 37 -36
24z"/>
<path d="M10888 1618 c-4 -10 -3 -18 3 -18 6 0 7 -4 4 -10 -3 -5 -2 -10 2 -10
5 0 14 10 22 23 13 20 13 21 -2 9 -13 -11 -16 -10 -19 5 -3 17 -4 17 -10 1z"/>
<path d="M11697 1605 c3 -9 8 -13 11 -10 3 3 14 -2 24 -12 10 -9 18 -11 18 -6
0 10 -42 43 -54 43 -3 0 -3 -7 1 -15z"/>
<path d="M10973 1575 c-9 -24 1 -27 15 -5 8 13 8 20 2 20 -6 0 -13 -7 -17 -15z"/>
<path d="M11001 1559 c-7 -16 -11 -33 -7 -36 3 -3 10 7 16 22 6 15 13 32 16
36 3 5 2 9 -3 9 -4 0 -14 -14 -22 -31z"/>
<path d="M11032 1550 c-7 -11 -8 -20 -3 -20 9 0 24 30 18 36 -1 2 -8 -6 -15
-16z"/>
<path d="M11523 1490 c-11 -16 -10 -18 2 -14 8 4 15 12 15 20 0 19 -3 18 -17
-6z"/>
<path d="M11170 1485 c0 -8 2 -15 4 -15 2 0 6 7 10 15 3 8 1 15 -4 15 -6 0
-10 -7 -10 -15z"/>
<path d="M11271 1474 c0 -11 3 -14 6 -6 3 7 2 16 -1 19 -3 4 -6 -2 -5 -13z"/>
<path d="M11466 1477 c3 -10 9 -15 12 -12 3 3 0 11 -7 18 -10 9 -11 8 -5 -6z"/>
<path d="M11326 1463 c-6 -14 -5 -15 5 -6 7 7 10 15 7 18 -3 3 -9 -2 -12 -12z"/>
<path d="M11441 1464 c0 -11 3 -14 6 -6 3 7 2 16 -1 19 -3 4 -6 -2 -5 -13z"/>
<path d="M11231 1443 c0 -25 1 -26 9 -8 12 27 12 35 0 35 -5 0 -10 -12 -9 -27z"/>
<path d="M11115 1410 c11 -5 31 -8 45 -8 l25 0 -25 8 c-14 4 -34 8 -45 8 l-20
1 20 -9z"/>
<path d="M11475 1404 l-60 -13 53 5 c29 3 62 9 75 14 31 12 2 10 -68 -6z"/>
<path d="M7218 1394 c-46 -24 -46 -63 1 -87 38 -19 86 7 86 47 0 38 -49 60
-87 40z m22 -40 c0 -28 -3 -35 -17 -32 -25 5 -29 39 -7 55 24 18 24 18 24 -23z
m60 3 c0 -17 -20 -37 -37 -37 -13 0 -19 51 -7 63 10 9 44 -12 44 -26z"/>
<path d="M7500 1403 c-38 -14 -51 -60 -24 -87 40 -41 121 4 94 53 -9 18 -42
43 -52 40 -2 0 -10 -3 -18 -6z m50 -28 c15 -18 10 -45 -12 -59 -33 -20 -69 20
-54 60 7 18 50 18 66 -1z"/>
<path d="M7340 1350 c0 -27 4 -50 9 -50 5 0 22 17 37 38 l29 37 6 -40 c6 -39
6 -39 8 13 0 28 -2 52 -6 52 -5 0 -22 -17 -40 -37 l-32 -38 3 38 c2 20 0 37
-5 37 -5 0 -9 -22 -9 -50z"/>
<path d="M8690 1350 c0 -27 5 -50 10 -50 6 0 10 15 10 33 l0 32 19 -28 19 -29
18 32 19 32 6 -39 c6 -35 6 -34 8 16 1 46 -1 52 -14 41 -8 -6 -17 -20 -20 -31
-9 -27 -21 -24 -42 11 -25 42 -33 37 -33 -20z"/>
<path d="M8840 1350 c0 -27 5 -50 10 -50 6 0 10 20 10 45 0 43 1 45 29 45 28
0 30 -2 34 -47 l3 -48 2 53 2 52 -45 0 -45 0 0 -50z"/>
<path d="M11203 1393 c9 -2 23 -2 30 0 6 3 -1 5 -18 5 -16 0 -22 -2 -12 -5z"/>
<path d="M11318 1383 c12 -2 32 -2 45 0 12 2 2 4 -23 4 -25 0 -35 -2 -22 -4z"/>
<path d="M7690 1351 c0 -17 -4 -33 -10 -36 -5 -3 -10 -14 -10 -23 0 -12 3 -13
12 -4 14 14 68 16 68 2 0 -5 5 -10 10 -10 6 0 10 7 10 15 0 8 -4 15 -10 15 -5
0 -10 16 -10 35 0 32 -2 35 -30 35 -27 0 -30 -3 -30 -29z m50 -11 c0 -23 -4
-30 -20 -30 -14 0 -20 7 -20 23 0 27 7 37 27 37 8 0 13 -12 13 -30z"/>
<path d="M7788 1355 c-8 -19 -8 -28 2 -40 32 -38 94 1 70 45 -16 29 -58 26
-72 -5z m57 -15 c0 -29 -32 -41 -41 -16 -9 24 4 48 23 44 12 -2 18 -12 18 -28z"/>
<path d="M7900 1352 c0 -15 -6 -34 -12 -41 -11 -11 -10 -13 2 -9 8 3 16 19 18
37 5 45 35 38 43 -9 l6 -35 2 43 c1 40 0 42 -29 42 -26 0 -30 -4 -30 -28z"/>
<path d="M7990 1375 c0 -6 5 -16 12 -23 8 -8 8 -15 -2 -27 -7 -8 -10 -19 -6
-23 4 -4 12 1 17 11 13 22 26 22 32 0 4 -17 5 -17 6 0 1 21 9 22 33 0 20 -18
25 -4 6 15 -9 9 -9 15 0 24 7 7 12 17 12 23 0 5 -9 -1 -20 -15 l-20 -25 -7 24
-6 25 -9 -25 -9 -24 -19 25 c-11 14 -20 20 -20 15z"/>
<path d="M8132 1340 c0 -25 2 -37 5 -27 3 10 14 17 28 17 14 0 25 -7 28 -17 3
-10 5 2 4 27 0 25 -2 35 -4 23 -3 -15 -12 -23 -24 -23 -11 0 -24 10 -29 23 -7
18 -9 13 -8 -23z"/>
<path d="M8242 1368 c-29 -29 -2 -72 40 -66 17 2 24 11 26 32 5 41 -37 63 -66
34z m48 -13 c25 -30 -10 -61 -38 -33 -7 7 -8 17 -1 30 12 22 23 23 39 3z"/>
<path d="M8338 1355 c-8 -19 -8 -28 2 -40 13 -16 60 -21 60 -7 0 5 -10 8 -22
8 -14 -1 -24 6 -26 18 -4 21 16 38 36 31 6 -2 12 0 12 5 0 6 -11 10 -25 10
-17 0 -29 -8 -37 -25z"/>
<path d="M8432 1368 c9 -7 19 -26 21 -43 4 -27 4 -27 6 7 1 26 6 38 19 41 9 3
-1 5 -22 6 -34 1 -37 -1 -24 -11z"/>
<path d="M8510 1339 c0 -39 1 -40 33 -37 24 2 32 8 32 23 0 13 -8 21 -22 23
-13 2 -23 10 -23 18 0 8 -4 14 -10 14 -5 0 -10 -18 -10 -41z m53 -14 c1 -5 -6
-11 -15 -13 -11 -2 -18 3 -18 13 0 17 30 18 33 0z"/>
<path d="M7599 1318 c-6 -21 -5 -38 2 -38 5 0 9 9 9 20 0 16 -7 28 -11 18z"/>
<path d="M8602 1300 c0 -14 2 -19 5 -12 2 6 2 18 0 25 -3 6 -5 1 -5 -13z"/>
<path d="M7200 780 c-12 -8 -9 -10 13 -10 36 0 34 -17 -5 -57 l-32 -33 45 1
c37 1 39 2 15 8 l-28 6 21 19 c25 22 28 61 5 70 -19 7 -16 8 -34 -4z"/>
<path d="M7296 777 c-22 -16 -18 -75 7 -91 25 -16 51 4 55 45 3 30 -15 59 -38
59 -3 0 -14 -6 -24 -13z m50 -33 c4 -17 1 -31 -10 -42 -15 -15 -17 -15 -32 0
-11 11 -14 25 -10 42 9 35 43 35 52 0z"/>
<path d="M7393 783 c-22 -8 -14 -20 11 -16 39 8 41 -16 5 -53 l-33 -34 45 1
c37 1 39 2 15 8 l-28 6 21 19 c43 39 16 90 -36 69z"/>
<path d="M7477 778 c-7 -5 -1 -8 17 -8 25 0 27 -2 15 -16 -11 -13 -10 -17 4
-25 9 -6 17 -17 17 -26 0 -12 -7 -14 -30 -9 -19 3 -29 2 -25 -4 9 -15 51 -12
64 4 12 15 5 46 -11 46 -6 0 -5 6 2 15 6 8 9 19 6 24 -7 11 -41 11 -59 -1z"/>
</g>
</svg>
